<mxfile host="app.diagrams.net" modified="2021-09-01T07:55:18.295Z" agent="5.0 (Windows NT 10.0; Win64; x64) AppleWebKit/537.36 (KHTML, like Gecko) Chrome/92.0.4515.159 Safari/537.36" etag="bfwIgwVlwKBRltNpmezY" version="15.0.3" type="github">
  <diagram id="zgTWq03G11BL6BS937c6" name="Page-1">
    <mxGraphModel dx="1162" dy="1909" grid="1" gridSize="10" guides="1" tooltips="1" connect="1" arrows="1" fold="1" page="1" pageScale="1" pageWidth="827" pageHeight="1169" math="0" shadow="0">
      <root>
        <mxCell id="0" />
        <mxCell id="1" parent="0" />
        <mxCell id="N8IRyX82hICqYUi2yfcc-1" value="Admin" style="shape=table;startSize=30;container=1;collapsible=1;childLayout=tableLayout;fixedRows=1;rowLines=0;fontStyle=1;align=center;resizeLast=1;" vertex="1" parent="1">
          <mxGeometry x="80" y="200" width="180" height="160" as="geometry" />
        </mxCell>
        <mxCell id="N8IRyX82hICqYUi2yfcc-2" value="" style="shape=partialRectangle;collapsible=0;dropTarget=0;pointerEvents=0;fillColor=none;top=0;left=0;bottom=1;right=0;points=[[0,0.5],[1,0.5]];portConstraint=eastwest;" vertex="1" parent="N8IRyX82hICqYUi2yfcc-1">
          <mxGeometry y="30" width="180" height="30" as="geometry" />
        </mxCell>
        <mxCell id="N8IRyX82hICqYUi2yfcc-3" value="PK" style="shape=partialRectangle;connectable=0;fillColor=none;top=0;left=0;bottom=0;right=0;fontStyle=1;overflow=hidden;" vertex="1" parent="N8IRyX82hICqYUi2yfcc-2">
          <mxGeometry width="30" height="30" as="geometry" />
        </mxCell>
        <mxCell id="N8IRyX82hICqYUi2yfcc-4" value="admin_id" style="shape=partialRectangle;connectable=0;fillColor=none;top=0;left=0;bottom=0;right=0;align=left;spacingLeft=6;fontStyle=5;overflow=hidden;" vertex="1" parent="N8IRyX82hICqYUi2yfcc-2">
          <mxGeometry x="30" width="150" height="30" as="geometry" />
        </mxCell>
        <mxCell id="N8IRyX82hICqYUi2yfcc-5" value="" style="shape=partialRectangle;collapsible=0;dropTarget=0;pointerEvents=0;fillColor=none;top=0;left=0;bottom=0;right=0;points=[[0,0.5],[1,0.5]];portConstraint=eastwest;" vertex="1" parent="N8IRyX82hICqYUi2yfcc-1">
          <mxGeometry y="60" width="180" height="30" as="geometry" />
        </mxCell>
        <mxCell id="N8IRyX82hICqYUi2yfcc-6" value="" style="shape=partialRectangle;connectable=0;fillColor=none;top=0;left=0;bottom=0;right=0;editable=1;overflow=hidden;" vertex="1" parent="N8IRyX82hICqYUi2yfcc-5">
          <mxGeometry width="30" height="30" as="geometry" />
        </mxCell>
        <mxCell id="N8IRyX82hICqYUi2yfcc-7" value="password" style="shape=partialRectangle;connectable=0;fillColor=none;top=0;left=0;bottom=0;right=0;align=left;spacingLeft=6;overflow=hidden;" vertex="1" parent="N8IRyX82hICqYUi2yfcc-5">
          <mxGeometry x="30" width="150" height="30" as="geometry" />
        </mxCell>
        <mxCell id="N8IRyX82hICqYUi2yfcc-8" value="" style="shape=partialRectangle;collapsible=0;dropTarget=0;pointerEvents=0;fillColor=none;top=0;left=0;bottom=0;right=0;points=[[0,0.5],[1,0.5]];portConstraint=eastwest;" vertex="1" parent="N8IRyX82hICqYUi2yfcc-1">
          <mxGeometry y="90" width="180" height="30" as="geometry" />
        </mxCell>
        <mxCell id="N8IRyX82hICqYUi2yfcc-9" value="" style="shape=partialRectangle;connectable=0;fillColor=none;top=0;left=0;bottom=0;right=0;editable=1;overflow=hidden;" vertex="1" parent="N8IRyX82hICqYUi2yfcc-8">
          <mxGeometry width="30" height="30" as="geometry" />
        </mxCell>
        <mxCell id="N8IRyX82hICqYUi2yfcc-10" value="email" style="shape=partialRectangle;connectable=0;fillColor=none;top=0;left=0;bottom=0;right=0;align=left;spacingLeft=6;overflow=hidden;" vertex="1" parent="N8IRyX82hICqYUi2yfcc-8">
          <mxGeometry x="30" width="150" height="30" as="geometry" />
        </mxCell>
        <mxCell id="N8IRyX82hICqYUi2yfcc-14" value="Clinic Time" style="shape=table;startSize=30;container=1;collapsible=1;childLayout=tableLayout;fixedRows=1;rowLines=0;fontStyle=1;align=center;resizeLast=1;" vertex="1" parent="1">
          <mxGeometry x="760" y="-40" width="180" height="220" as="geometry" />
        </mxCell>
        <mxCell id="N8IRyX82hICqYUi2yfcc-15" value="" style="shape=partialRectangle;collapsible=0;dropTarget=0;pointerEvents=0;fillColor=none;top=0;left=0;bottom=1;right=0;points=[[0,0.5],[1,0.5]];portConstraint=eastwest;" vertex="1" parent="N8IRyX82hICqYUi2yfcc-14">
          <mxGeometry y="30" width="180" height="30" as="geometry" />
        </mxCell>
        <mxCell id="N8IRyX82hICqYUi2yfcc-16" value="PK" style="shape=partialRectangle;connectable=0;fillColor=none;top=0;left=0;bottom=0;right=0;fontStyle=1;overflow=hidden;" vertex="1" parent="N8IRyX82hICqYUi2yfcc-15">
          <mxGeometry width="30" height="30" as="geometry" />
        </mxCell>
        <mxCell id="N8IRyX82hICqYUi2yfcc-17" value="clinic_time_id" style="shape=partialRectangle;connectable=0;fillColor=none;top=0;left=0;bottom=0;right=0;align=left;spacingLeft=6;fontStyle=5;overflow=hidden;" vertex="1" parent="N8IRyX82hICqYUi2yfcc-15">
          <mxGeometry x="30" width="150" height="30" as="geometry" />
        </mxCell>
        <mxCell id="N8IRyX82hICqYUi2yfcc-18" value="" style="shape=partialRectangle;collapsible=0;dropTarget=0;pointerEvents=0;fillColor=none;top=0;left=0;bottom=0;right=0;points=[[0,0.5],[1,0.5]];portConstraint=eastwest;" vertex="1" parent="N8IRyX82hICqYUi2yfcc-14">
          <mxGeometry y="60" width="180" height="30" as="geometry" />
        </mxCell>
        <mxCell id="N8IRyX82hICqYUi2yfcc-19" value="" style="shape=partialRectangle;connectable=0;fillColor=none;top=0;left=0;bottom=0;right=0;editable=1;overflow=hidden;" vertex="1" parent="N8IRyX82hICqYUi2yfcc-18">
          <mxGeometry width="30" height="30" as="geometry" />
        </mxCell>
        <mxCell id="N8IRyX82hICqYUi2yfcc-20" value="clinic_id" style="shape=partialRectangle;connectable=0;fillColor=none;top=0;left=0;bottom=0;right=0;align=left;spacingLeft=6;overflow=hidden;" vertex="1" parent="N8IRyX82hICqYUi2yfcc-18">
          <mxGeometry x="30" width="150" height="30" as="geometry" />
        </mxCell>
        <mxCell id="N8IRyX82hICqYUi2yfcc-21" value="" style="shape=partialRectangle;collapsible=0;dropTarget=0;pointerEvents=0;fillColor=none;top=0;left=0;bottom=0;right=0;points=[[0,0.5],[1,0.5]];portConstraint=eastwest;" vertex="1" parent="N8IRyX82hICqYUi2yfcc-14">
          <mxGeometry y="90" width="180" height="30" as="geometry" />
        </mxCell>
        <mxCell id="N8IRyX82hICqYUi2yfcc-22" value="" style="shape=partialRectangle;connectable=0;fillColor=none;top=0;left=0;bottom=0;right=0;editable=1;overflow=hidden;" vertex="1" parent="N8IRyX82hICqYUi2yfcc-21">
          <mxGeometry width="30" height="30" as="geometry" />
        </mxCell>
        <mxCell id="N8IRyX82hICqYUi2yfcc-23" value="start_date" style="shape=partialRectangle;connectable=0;fillColor=none;top=0;left=0;bottom=0;right=0;align=left;spacingLeft=6;overflow=hidden;" vertex="1" parent="N8IRyX82hICqYUi2yfcc-21">
          <mxGeometry x="30" width="150" height="30" as="geometry" />
        </mxCell>
        <mxCell id="N8IRyX82hICqYUi2yfcc-24" value="" style="shape=partialRectangle;collapsible=0;dropTarget=0;pointerEvents=0;fillColor=none;top=0;left=0;bottom=0;right=0;points=[[0,0.5],[1,0.5]];portConstraint=eastwest;" vertex="1" parent="N8IRyX82hICqYUi2yfcc-14">
          <mxGeometry y="120" width="180" height="30" as="geometry" />
        </mxCell>
        <mxCell id="N8IRyX82hICqYUi2yfcc-25" value="" style="shape=partialRectangle;connectable=0;fillColor=none;top=0;left=0;bottom=0;right=0;editable=1;overflow=hidden;" vertex="1" parent="N8IRyX82hICqYUi2yfcc-24">
          <mxGeometry width="30" height="30" as="geometry" />
        </mxCell>
        <mxCell id="N8IRyX82hICqYUi2yfcc-26" value="end_date" style="shape=partialRectangle;connectable=0;fillColor=none;top=0;left=0;bottom=0;right=0;align=left;spacingLeft=6;overflow=hidden;" vertex="1" parent="N8IRyX82hICqYUi2yfcc-24">
          <mxGeometry x="30" width="150" height="30" as="geometry" />
        </mxCell>
        <mxCell id="N8IRyX82hICqYUi2yfcc-27" value="" style="shape=partialRectangle;collapsible=0;dropTarget=0;pointerEvents=0;fillColor=none;top=0;left=0;bottom=0;right=0;points=[[0,0.5],[1,0.5]];portConstraint=eastwest;" vertex="1" parent="N8IRyX82hICqYUi2yfcc-14">
          <mxGeometry y="150" width="180" height="30" as="geometry" />
        </mxCell>
        <mxCell id="N8IRyX82hICqYUi2yfcc-28" value="" style="shape=partialRectangle;connectable=0;fillColor=none;top=0;left=0;bottom=0;right=0;editable=1;overflow=hidden;" vertex="1" parent="N8IRyX82hICqYUi2yfcc-27">
          <mxGeometry width="30" height="30" as="geometry" />
        </mxCell>
        <mxCell id="N8IRyX82hICqYUi2yfcc-29" value="capacity" style="shape=partialRectangle;connectable=0;fillColor=none;top=0;left=0;bottom=0;right=0;align=left;spacingLeft=6;overflow=hidden;" vertex="1" parent="N8IRyX82hICqYUi2yfcc-27">
          <mxGeometry x="30" width="150" height="30" as="geometry" />
        </mxCell>
        <mxCell id="N8IRyX82hICqYUi2yfcc-30" value="Clinic" style="shape=table;startSize=30;container=1;collapsible=1;childLayout=tableLayout;fixedRows=1;rowLines=0;fontStyle=1;align=center;resizeLast=1;" vertex="1" parent="1">
          <mxGeometry x="1080" y="-40" width="180" height="310" as="geometry" />
        </mxCell>
        <mxCell id="N8IRyX82hICqYUi2yfcc-31" value="" style="shape=partialRectangle;collapsible=0;dropTarget=0;pointerEvents=0;fillColor=none;top=0;left=0;bottom=1;right=0;points=[[0,0.5],[1,0.5]];portConstraint=eastwest;" vertex="1" parent="N8IRyX82hICqYUi2yfcc-30">
          <mxGeometry y="30" width="180" height="30" as="geometry" />
        </mxCell>
        <mxCell id="N8IRyX82hICqYUi2yfcc-32" value="PK" style="shape=partialRectangle;connectable=0;fillColor=none;top=0;left=0;bottom=0;right=0;fontStyle=1;overflow=hidden;" vertex="1" parent="N8IRyX82hICqYUi2yfcc-31">
          <mxGeometry width="30" height="30" as="geometry" />
        </mxCell>
        <mxCell id="N8IRyX82hICqYUi2yfcc-33" value="clinic_id" style="shape=partialRectangle;connectable=0;fillColor=none;top=0;left=0;bottom=0;right=0;align=left;spacingLeft=6;fontStyle=5;overflow=hidden;" vertex="1" parent="N8IRyX82hICqYUi2yfcc-31">
          <mxGeometry x="30" width="150" height="30" as="geometry" />
        </mxCell>
        <mxCell id="N8IRyX82hICqYUi2yfcc-34" value="" style="shape=partialRectangle;collapsible=0;dropTarget=0;pointerEvents=0;fillColor=none;top=0;left=0;bottom=0;right=0;points=[[0,0.5],[1,0.5]];portConstraint=eastwest;" vertex="1" parent="N8IRyX82hICqYUi2yfcc-30">
          <mxGeometry y="60" width="180" height="30" as="geometry" />
        </mxCell>
        <mxCell id="N8IRyX82hICqYUi2yfcc-35" value="" style="shape=partialRectangle;connectable=0;fillColor=none;top=0;left=0;bottom=0;right=0;editable=1;overflow=hidden;" vertex="1" parent="N8IRyX82hICqYUi2yfcc-34">
          <mxGeometry width="30" height="30" as="geometry" />
        </mxCell>
        <mxCell id="N8IRyX82hICqYUi2yfcc-36" value="longitude" style="shape=partialRectangle;connectable=0;fillColor=none;top=0;left=0;bottom=0;right=0;align=left;spacingLeft=6;overflow=hidden;" vertex="1" parent="N8IRyX82hICqYUi2yfcc-34">
          <mxGeometry x="30" width="150" height="30" as="geometry" />
        </mxCell>
        <mxCell id="N8IRyX82hICqYUi2yfcc-37" value="" style="shape=partialRectangle;collapsible=0;dropTarget=0;pointerEvents=0;fillColor=none;top=0;left=0;bottom=0;right=0;points=[[0,0.5],[1,0.5]];portConstraint=eastwest;" vertex="1" parent="N8IRyX82hICqYUi2yfcc-30">
          <mxGeometry y="90" width="180" height="30" as="geometry" />
        </mxCell>
        <mxCell id="N8IRyX82hICqYUi2yfcc-38" value="" style="shape=partialRectangle;connectable=0;fillColor=none;top=0;left=0;bottom=0;right=0;editable=1;overflow=hidden;" vertex="1" parent="N8IRyX82hICqYUi2yfcc-37">
          <mxGeometry width="30" height="30" as="geometry" />
        </mxCell>
        <mxCell id="N8IRyX82hICqYUi2yfcc-39" value="latitude" style="shape=partialRectangle;connectable=0;fillColor=none;top=0;left=0;bottom=0;right=0;align=left;spacingLeft=6;overflow=hidden;" vertex="1" parent="N8IRyX82hICqYUi2yfcc-37">
          <mxGeometry x="30" width="150" height="30" as="geometry" />
        </mxCell>
        <mxCell id="N8IRyX82hICqYUi2yfcc-40" value="" style="shape=partialRectangle;collapsible=0;dropTarget=0;pointerEvents=0;fillColor=none;top=0;left=0;bottom=0;right=0;points=[[0,0.5],[1,0.5]];portConstraint=eastwest;" vertex="1" parent="N8IRyX82hICqYUi2yfcc-30">
          <mxGeometry y="120" width="180" height="30" as="geometry" />
        </mxCell>
        <mxCell id="N8IRyX82hICqYUi2yfcc-41" value="" style="shape=partialRectangle;connectable=0;fillColor=none;top=0;left=0;bottom=0;right=0;editable=1;overflow=hidden;" vertex="1" parent="N8IRyX82hICqYUi2yfcc-40">
          <mxGeometry width="30" height="30" as="geometry" />
        </mxCell>
        <mxCell id="N8IRyX82hICqYUi2yfcc-42" value="address" style="shape=partialRectangle;connectable=0;fillColor=none;top=0;left=0;bottom=0;right=0;align=left;spacingLeft=6;overflow=hidden;" vertex="1" parent="N8IRyX82hICqYUi2yfcc-40">
          <mxGeometry x="30" width="150" height="30" as="geometry" />
        </mxCell>
        <mxCell id="N8IRyX82hICqYUi2yfcc-43" value="" style="shape=partialRectangle;collapsible=0;dropTarget=0;pointerEvents=0;fillColor=none;top=0;left=0;bottom=0;right=0;points=[[0,0.5],[1,0.5]];portConstraint=eastwest;" vertex="1" parent="N8IRyX82hICqYUi2yfcc-30">
          <mxGeometry y="150" width="180" height="30" as="geometry" />
        </mxCell>
        <mxCell id="N8IRyX82hICqYUi2yfcc-44" value="" style="shape=partialRectangle;connectable=0;fillColor=none;top=0;left=0;bottom=0;right=0;editable=1;overflow=hidden;" vertex="1" parent="N8IRyX82hICqYUi2yfcc-43">
          <mxGeometry width="30" height="30" as="geometry" />
        </mxCell>
        <mxCell id="N8IRyX82hICqYUi2yfcc-45" value="drive_thru_yn" style="shape=partialRectangle;connectable=0;fillColor=none;top=0;left=0;bottom=0;right=0;align=left;spacingLeft=6;overflow=hidden;" vertex="1" parent="N8IRyX82hICqYUi2yfcc-43">
          <mxGeometry x="30" width="150" height="30" as="geometry" />
        </mxCell>
        <mxCell id="N8IRyX82hICqYUi2yfcc-46" value="" style="shape=partialRectangle;collapsible=0;dropTarget=0;pointerEvents=0;fillColor=none;top=0;left=0;bottom=0;right=0;points=[[0,0.5],[1,0.5]];portConstraint=eastwest;" vertex="1" parent="N8IRyX82hICqYUi2yfcc-30">
          <mxGeometry y="180" width="180" height="30" as="geometry" />
        </mxCell>
        <mxCell id="N8IRyX82hICqYUi2yfcc-47" value="" style="shape=partialRectangle;connectable=0;fillColor=none;top=0;left=0;bottom=0;right=0;editable=1;overflow=hidden;" vertex="1" parent="N8IRyX82hICqYUi2yfcc-46">
          <mxGeometry width="30" height="30" as="geometry" />
        </mxCell>
        <mxCell id="N8IRyX82hICqYUi2yfcc-48" value="visit_yn" style="shape=partialRectangle;connectable=0;fillColor=none;top=0;left=0;bottom=0;right=0;align=left;spacingLeft=6;overflow=hidden;" vertex="1" parent="N8IRyX82hICqYUi2yfcc-46">
          <mxGeometry x="30" width="150" height="30" as="geometry" />
        </mxCell>
        <mxCell id="N8IRyX82hICqYUi2yfcc-49" value="" style="shape=partialRectangle;collapsible=0;dropTarget=0;pointerEvents=0;fillColor=none;top=0;left=0;bottom=0;right=0;points=[[0,0.5],[1,0.5]];portConstraint=eastwest;" vertex="1" parent="N8IRyX82hICqYUi2yfcc-30">
          <mxGeometry y="210" width="180" height="30" as="geometry" />
        </mxCell>
        <mxCell id="N8IRyX82hICqYUi2yfcc-50" value="" style="shape=partialRectangle;connectable=0;fillColor=none;top=0;left=0;bottom=0;right=0;editable=1;overflow=hidden;" vertex="1" parent="N8IRyX82hICqYUi2yfcc-49">
          <mxGeometry width="30" height="30" as="geometry" />
        </mxCell>
        <mxCell id="N8IRyX82hICqYUi2yfcc-51" value="work_thru_yn" style="shape=partialRectangle;connectable=0;fillColor=none;top=0;left=0;bottom=0;right=0;align=left;spacingLeft=6;overflow=hidden;" vertex="1" parent="N8IRyX82hICqYUi2yfcc-49">
          <mxGeometry x="30" width="150" height="30" as="geometry" />
        </mxCell>
        <mxCell id="N8IRyX82hICqYUi2yfcc-52" value="" style="shape=partialRectangle;collapsible=0;dropTarget=0;pointerEvents=0;fillColor=none;top=0;left=0;bottom=0;right=0;points=[[0,0.5],[1,0.5]];portConstraint=eastwest;" vertex="1" parent="N8IRyX82hICqYUi2yfcc-30">
          <mxGeometry y="240" width="180" height="30" as="geometry" />
        </mxCell>
        <mxCell id="N8IRyX82hICqYUi2yfcc-53" value="" style="shape=partialRectangle;connectable=0;fillColor=none;top=0;left=0;bottom=0;right=0;editable=1;overflow=hidden;" vertex="1" parent="N8IRyX82hICqYUi2yfcc-52">
          <mxGeometry width="30" height="30" as="geometry" />
        </mxCell>
        <mxCell id="N8IRyX82hICqYUi2yfcc-54" value="parking_yn" style="shape=partialRectangle;connectable=0;fillColor=none;top=0;left=0;bottom=0;right=0;align=left;spacingLeft=6;overflow=hidden;" vertex="1" parent="N8IRyX82hICqYUi2yfcc-52">
          <mxGeometry x="30" width="150" height="30" as="geometry" />
        </mxCell>
        <mxCell id="N8IRyX82hICqYUi2yfcc-55" value="Covid Info" style="shape=table;startSize=30;container=1;collapsible=1;childLayout=tableLayout;fixedRows=1;rowLines=0;fontStyle=1;align=center;resizeLast=1;" vertex="1" parent="1">
          <mxGeometry x="1445" y="400" width="180" height="220" as="geometry" />
        </mxCell>
        <mxCell id="N8IRyX82hICqYUi2yfcc-56" value="" style="shape=partialRectangle;collapsible=0;dropTarget=0;pointerEvents=0;fillColor=none;top=0;left=0;bottom=1;right=0;points=[[0,0.5],[1,0.5]];portConstraint=eastwest;" vertex="1" parent="N8IRyX82hICqYUi2yfcc-55">
          <mxGeometry y="30" width="180" height="30" as="geometry" />
        </mxCell>
        <mxCell id="N8IRyX82hICqYUi2yfcc-57" value="PK" style="shape=partialRectangle;connectable=0;fillColor=none;top=0;left=0;bottom=0;right=0;fontStyle=1;overflow=hidden;" vertex="1" parent="N8IRyX82hICqYUi2yfcc-56">
          <mxGeometry width="30" height="30" as="geometry" />
        </mxCell>
        <mxCell id="N8IRyX82hICqYUi2yfcc-58" value="covid_info_id" style="shape=partialRectangle;connectable=0;fillColor=none;top=0;left=0;bottom=0;right=0;align=left;spacingLeft=6;fontStyle=5;overflow=hidden;" vertex="1" parent="N8IRyX82hICqYUi2yfcc-56">
          <mxGeometry x="30" width="150" height="30" as="geometry" />
        </mxCell>
        <mxCell id="N8IRyX82hICqYUi2yfcc-59" value="" style="shape=partialRectangle;collapsible=0;dropTarget=0;pointerEvents=0;fillColor=none;top=0;left=0;bottom=0;right=0;points=[[0,0.5],[1,0.5]];portConstraint=eastwest;" vertex="1" parent="N8IRyX82hICqYUi2yfcc-55">
          <mxGeometry y="60" width="180" height="30" as="geometry" />
        </mxCell>
        <mxCell id="N8IRyX82hICqYUi2yfcc-60" value="" style="shape=partialRectangle;connectable=0;fillColor=none;top=0;left=0;bottom=0;right=0;editable=1;overflow=hidden;" vertex="1" parent="N8IRyX82hICqYUi2yfcc-59">
          <mxGeometry width="30" height="30" as="geometry" />
        </mxCell>
        <mxCell id="N8IRyX82hICqYUi2yfcc-61" value="title" style="shape=partialRectangle;connectable=0;fillColor=none;top=0;left=0;bottom=0;right=0;align=left;spacingLeft=6;overflow=hidden;" vertex="1" parent="N8IRyX82hICqYUi2yfcc-59">
          <mxGeometry x="30" width="150" height="30" as="geometry" />
        </mxCell>
        <mxCell id="N8IRyX82hICqYUi2yfcc-62" value="" style="shape=partialRectangle;collapsible=0;dropTarget=0;pointerEvents=0;fillColor=none;top=0;left=0;bottom=0;right=0;points=[[0,0.5],[1,0.5]];portConstraint=eastwest;" vertex="1" parent="N8IRyX82hICqYUi2yfcc-55">
          <mxGeometry y="90" width="180" height="30" as="geometry" />
        </mxCell>
        <mxCell id="N8IRyX82hICqYUi2yfcc-63" value="" style="shape=partialRectangle;connectable=0;fillColor=none;top=0;left=0;bottom=0;right=0;editable=1;overflow=hidden;" vertex="1" parent="N8IRyX82hICqYUi2yfcc-62">
          <mxGeometry width="30" height="30" as="geometry" />
        </mxCell>
        <mxCell id="N8IRyX82hICqYUi2yfcc-64" value="content" style="shape=partialRectangle;connectable=0;fillColor=none;top=0;left=0;bottom=0;right=0;align=left;spacingLeft=6;overflow=hidden;" vertex="1" parent="N8IRyX82hICqYUi2yfcc-62">
          <mxGeometry x="30" width="150" height="30" as="geometry" />
        </mxCell>
        <mxCell id="N8IRyX82hICqYUi2yfcc-65" value="" style="shape=partialRectangle;collapsible=0;dropTarget=0;pointerEvents=0;fillColor=none;top=0;left=0;bottom=0;right=0;points=[[0,0.5],[1,0.5]];portConstraint=eastwest;" vertex="1" parent="N8IRyX82hICqYUi2yfcc-55">
          <mxGeometry y="120" width="180" height="30" as="geometry" />
        </mxCell>
        <mxCell id="N8IRyX82hICqYUi2yfcc-66" value="" style="shape=partialRectangle;connectable=0;fillColor=none;top=0;left=0;bottom=0;right=0;editable=1;overflow=hidden;" vertex="1" parent="N8IRyX82hICqYUi2yfcc-65">
          <mxGeometry width="30" height="30" as="geometry" />
        </mxCell>
        <mxCell id="N8IRyX82hICqYUi2yfcc-67" value="image_uri" style="shape=partialRectangle;connectable=0;fillColor=none;top=0;left=0;bottom=0;right=0;align=left;spacingLeft=6;overflow=hidden;" vertex="1" parent="N8IRyX82hICqYUi2yfcc-65">
          <mxGeometry x="30" width="150" height="30" as="geometry" />
        </mxCell>
        <mxCell id="N8IRyX82hICqYUi2yfcc-68" value="" style="shape=partialRectangle;collapsible=0;dropTarget=0;pointerEvents=0;fillColor=none;top=0;left=0;bottom=0;right=0;points=[[0,0.5],[1,0.5]];portConstraint=eastwest;" vertex="1" parent="N8IRyX82hICqYUi2yfcc-55">
          <mxGeometry y="150" width="180" height="30" as="geometry" />
        </mxCell>
        <mxCell id="N8IRyX82hICqYUi2yfcc-69" value="" style="shape=partialRectangle;connectable=0;fillColor=none;top=0;left=0;bottom=0;right=0;editable=1;overflow=hidden;" vertex="1" parent="N8IRyX82hICqYUi2yfcc-68">
          <mxGeometry width="30" height="30" as="geometry" />
        </mxCell>
        <mxCell id="N8IRyX82hICqYUi2yfcc-70" value="type" style="shape=partialRectangle;connectable=0;fillColor=none;top=0;left=0;bottom=0;right=0;align=left;spacingLeft=6;overflow=hidden;" vertex="1" parent="N8IRyX82hICqYUi2yfcc-68">
          <mxGeometry x="30" width="150" height="30" as="geometry" />
        </mxCell>
        <mxCell id="N8IRyX82hICqYUi2yfcc-71" value="Covid Status By City" style="shape=table;startSize=30;container=1;collapsible=1;childLayout=tableLayout;fixedRows=1;rowLines=0;fontStyle=1;align=center;resizeLast=1;" vertex="1" parent="1">
          <mxGeometry x="1080" y="610" width="210" height="430" as="geometry" />
        </mxCell>
        <mxCell id="N8IRyX82hICqYUi2yfcc-72" value="" style="shape=partialRectangle;collapsible=0;dropTarget=0;pointerEvents=0;fillColor=none;top=0;left=0;bottom=1;right=0;points=[[0,0.5],[1,0.5]];portConstraint=eastwest;" vertex="1" parent="N8IRyX82hICqYUi2yfcc-71">
          <mxGeometry y="30" width="210" height="30" as="geometry" />
        </mxCell>
        <mxCell id="N8IRyX82hICqYUi2yfcc-73" value="PK" style="shape=partialRectangle;connectable=0;fillColor=none;top=0;left=0;bottom=0;right=0;fontStyle=1;overflow=hidden;" vertex="1" parent="N8IRyX82hICqYUi2yfcc-72">
          <mxGeometry width="30" height="30" as="geometry" />
        </mxCell>
        <mxCell id="N8IRyX82hICqYUi2yfcc-74" value="covid_status_by_city_id" style="shape=partialRectangle;connectable=0;fillColor=none;top=0;left=0;bottom=0;right=0;align=left;spacingLeft=6;fontStyle=5;overflow=hidden;" vertex="1" parent="N8IRyX82hICqYUi2yfcc-72">
          <mxGeometry x="30" width="180" height="30" as="geometry" />
        </mxCell>
        <mxCell id="N8IRyX82hICqYUi2yfcc-75" value="" style="shape=partialRectangle;collapsible=0;dropTarget=0;pointerEvents=0;fillColor=none;top=0;left=0;bottom=0;right=0;points=[[0,0.5],[1,0.5]];portConstraint=eastwest;" vertex="1" parent="N8IRyX82hICqYUi2yfcc-71">
          <mxGeometry y="60" width="210" height="30" as="geometry" />
        </mxCell>
        <mxCell id="N8IRyX82hICqYUi2yfcc-76" value="" style="shape=partialRectangle;connectable=0;fillColor=none;top=0;left=0;bottom=0;right=0;editable=1;overflow=hidden;" vertex="1" parent="N8IRyX82hICqYUi2yfcc-75">
          <mxGeometry width="30" height="30" as="geometry" />
        </mxCell>
        <mxCell id="N8IRyX82hICqYUi2yfcc-77" value="city_id" style="shape=partialRectangle;connectable=0;fillColor=none;top=0;left=0;bottom=0;right=0;align=left;spacingLeft=6;overflow=hidden;" vertex="1" parent="N8IRyX82hICqYUi2yfcc-75">
          <mxGeometry x="30" width="180" height="30" as="geometry" />
        </mxCell>
        <mxCell id="N8IRyX82hICqYUi2yfcc-78" value="" style="shape=partialRectangle;collapsible=0;dropTarget=0;pointerEvents=0;fillColor=none;top=0;left=0;bottom=0;right=0;points=[[0,0.5],[1,0.5]];portConstraint=eastwest;" vertex="1" parent="N8IRyX82hICqYUi2yfcc-71">
          <mxGeometry y="90" width="210" height="30" as="geometry" />
        </mxCell>
        <mxCell id="N8IRyX82hICqYUi2yfcc-79" value="" style="shape=partialRectangle;connectable=0;fillColor=none;top=0;left=0;bottom=0;right=0;editable=1;overflow=hidden;" vertex="1" parent="N8IRyX82hICqYUi2yfcc-78">
          <mxGeometry width="30" height="30" as="geometry" />
        </mxCell>
        <mxCell id="N8IRyX82hICqYUi2yfcc-80" value="vaccination_count    " style="shape=partialRectangle;connectable=0;fillColor=none;top=0;left=0;bottom=0;right=0;align=left;spacingLeft=6;overflow=hidden;" vertex="1" parent="N8IRyX82hICqYUi2yfcc-78">
          <mxGeometry x="30" width="180" height="30" as="geometry" />
        </mxCell>
        <mxCell id="N8IRyX82hICqYUi2yfcc-81" value="" style="shape=partialRectangle;collapsible=0;dropTarget=0;pointerEvents=0;fillColor=none;top=0;left=0;bottom=0;right=0;points=[[0,0.5],[1,0.5]];portConstraint=eastwest;" vertex="1" parent="N8IRyX82hICqYUi2yfcc-71">
          <mxGeometry y="120" width="210" height="30" as="geometry" />
        </mxCell>
        <mxCell id="N8IRyX82hICqYUi2yfcc-82" value="" style="shape=partialRectangle;connectable=0;fillColor=none;top=0;left=0;bottom=0;right=0;editable=1;overflow=hidden;" vertex="1" parent="N8IRyX82hICqYUi2yfcc-81">
          <mxGeometry width="30" height="30" as="geometry" />
        </mxCell>
        <mxCell id="N8IRyX82hICqYUi2yfcc-83" value="primary_vaccination_count" style="shape=partialRectangle;connectable=0;fillColor=none;top=0;left=0;bottom=0;right=0;align=left;spacingLeft=6;overflow=hidden;" vertex="1" parent="N8IRyX82hICqYUi2yfcc-81">
          <mxGeometry x="30" width="180" height="30" as="geometry" />
        </mxCell>
        <mxCell id="N8IRyX82hICqYUi2yfcc-84" value="" style="shape=partialRectangle;collapsible=0;dropTarget=0;pointerEvents=0;fillColor=none;top=0;left=0;bottom=0;right=0;points=[[0,0.5],[1,0.5]];portConstraint=eastwest;" vertex="1" parent="N8IRyX82hICqYUi2yfcc-71">
          <mxGeometry y="150" width="210" height="30" as="geometry" />
        </mxCell>
        <mxCell id="N8IRyX82hICqYUi2yfcc-85" value="" style="shape=partialRectangle;connectable=0;fillColor=none;top=0;left=0;bottom=0;right=0;editable=1;overflow=hidden;" vertex="1" parent="N8IRyX82hICqYUi2yfcc-84">
          <mxGeometry width="30" height="30" as="geometry" />
        </mxCell>
        <mxCell id="N8IRyX82hICqYUi2yfcc-86" value="secondary_vaccination_count" style="shape=partialRectangle;connectable=0;fillColor=none;top=0;left=0;bottom=0;right=0;align=left;spacingLeft=6;overflow=hidden;" vertex="1" parent="N8IRyX82hICqYUi2yfcc-84">
          <mxGeometry x="30" width="180" height="30" as="geometry" />
        </mxCell>
        <mxCell id="N8IRyX82hICqYUi2yfcc-87" value="" style="shape=partialRectangle;collapsible=0;dropTarget=0;pointerEvents=0;fillColor=none;top=0;left=0;bottom=0;right=0;points=[[0,0.5],[1,0.5]];portConstraint=eastwest;" vertex="1" parent="N8IRyX82hICqYUi2yfcc-71">
          <mxGeometry y="180" width="210" height="30" as="geometry" />
        </mxCell>
        <mxCell id="N8IRyX82hICqYUi2yfcc-88" value="" style="shape=partialRectangle;connectable=0;fillColor=none;top=0;left=0;bottom=0;right=0;editable=1;overflow=hidden;" vertex="1" parent="N8IRyX82hICqYUi2yfcc-87">
          <mxGeometry width="30" height="30" as="geometry" />
        </mxCell>
        <mxCell id="N8IRyX82hICqYUi2yfcc-89" value="infected_count" style="shape=partialRectangle;connectable=0;fillColor=none;top=0;left=0;bottom=0;right=0;align=left;spacingLeft=6;overflow=hidden;" vertex="1" parent="N8IRyX82hICqYUi2yfcc-87">
          <mxGeometry x="30" width="180" height="30" as="geometry" />
        </mxCell>
        <mxCell id="N8IRyX82hICqYUi2yfcc-90" value="" style="shape=partialRectangle;collapsible=0;dropTarget=0;pointerEvents=0;fillColor=none;top=0;left=0;bottom=0;right=0;points=[[0,0.5],[1,0.5]];portConstraint=eastwest;" vertex="1" parent="N8IRyX82hICqYUi2yfcc-71">
          <mxGeometry y="210" width="210" height="30" as="geometry" />
        </mxCell>
        <mxCell id="N8IRyX82hICqYUi2yfcc-91" value="" style="shape=partialRectangle;connectable=0;fillColor=none;top=0;left=0;bottom=0;right=0;editable=1;overflow=hidden;" vertex="1" parent="N8IRyX82hICqYUi2yfcc-90">
          <mxGeometry width="30" height="30" as="geometry" />
        </mxCell>
        <mxCell id="N8IRyX82hICqYUi2yfcc-92" value="healing_count" style="shape=partialRectangle;connectable=0;fillColor=none;top=0;left=0;bottom=0;right=0;align=left;spacingLeft=6;overflow=hidden;" vertex="1" parent="N8IRyX82hICqYUi2yfcc-90">
          <mxGeometry x="30" width="180" height="30" as="geometry" />
        </mxCell>
        <mxCell id="N8IRyX82hICqYUi2yfcc-93" value="" style="shape=partialRectangle;collapsible=0;dropTarget=0;pointerEvents=0;fillColor=none;top=0;left=0;bottom=0;right=0;points=[[0,0.5],[1,0.5]];portConstraint=eastwest;" vertex="1" parent="N8IRyX82hICqYUi2yfcc-71">
          <mxGeometry y="240" width="210" height="30" as="geometry" />
        </mxCell>
        <mxCell id="N8IRyX82hICqYUi2yfcc-94" value="" style="shape=partialRectangle;connectable=0;fillColor=none;top=0;left=0;bottom=0;right=0;editable=1;overflow=hidden;" vertex="1" parent="N8IRyX82hICqYUi2yfcc-93">
          <mxGeometry width="30" height="30" as="geometry" />
        </mxCell>
        <mxCell id="N8IRyX82hICqYUi2yfcc-95" value="deaths_count" style="shape=partialRectangle;connectable=0;fillColor=none;top=0;left=0;bottom=0;right=0;align=left;spacingLeft=6;overflow=hidden;" vertex="1" parent="N8IRyX82hICqYUi2yfcc-93">
          <mxGeometry x="30" width="180" height="30" as="geometry" />
        </mxCell>
        <mxCell id="N8IRyX82hICqYUi2yfcc-96" value="" style="shape=partialRectangle;collapsible=0;dropTarget=0;pointerEvents=0;fillColor=none;top=0;left=0;bottom=0;right=0;points=[[0,0.5],[1,0.5]];portConstraint=eastwest;" vertex="1" parent="N8IRyX82hICqYUi2yfcc-71">
          <mxGeometry y="270" width="210" height="30" as="geometry" />
        </mxCell>
        <mxCell id="N8IRyX82hICqYUi2yfcc-97" value="" style="shape=partialRectangle;connectable=0;fillColor=none;top=0;left=0;bottom=0;right=0;editable=1;overflow=hidden;" vertex="1" parent="N8IRyX82hICqYUi2yfcc-96">
          <mxGeometry width="30" height="30" as="geometry" />
        </mxCell>
        <mxCell id="N8IRyX82hICqYUi2yfcc-98" value="domestic_count" style="shape=partialRectangle;connectable=0;fillColor=none;top=0;left=0;bottom=0;right=0;align=left;spacingLeft=6;overflow=hidden;" vertex="1" parent="N8IRyX82hICqYUi2yfcc-96">
          <mxGeometry x="30" width="180" height="30" as="geometry" />
        </mxCell>
        <mxCell id="N8IRyX82hICqYUi2yfcc-99" value="" style="shape=partialRectangle;collapsible=0;dropTarget=0;pointerEvents=0;fillColor=none;top=0;left=0;bottom=0;right=0;points=[[0,0.5],[1,0.5]];portConstraint=eastwest;" vertex="1" parent="N8IRyX82hICqYUi2yfcc-71">
          <mxGeometry y="300" width="210" height="30" as="geometry" />
        </mxCell>
        <mxCell id="N8IRyX82hICqYUi2yfcc-100" value="" style="shape=partialRectangle;connectable=0;fillColor=none;top=0;left=0;bottom=0;right=0;editable=1;overflow=hidden;" vertex="1" parent="N8IRyX82hICqYUi2yfcc-99">
          <mxGeometry width="30" height="30" as="geometry" />
        </mxCell>
        <mxCell id="N8IRyX82hICqYUi2yfcc-101" value="abroad_count" style="shape=partialRectangle;connectable=0;fillColor=none;top=0;left=0;bottom=0;right=0;align=left;spacingLeft=6;overflow=hidden;" vertex="1" parent="N8IRyX82hICqYUi2yfcc-99">
          <mxGeometry x="30" width="180" height="30" as="geometry" />
        </mxCell>
        <mxCell id="N8IRyX82hICqYUi2yfcc-102" value="" style="shape=partialRectangle;collapsible=0;dropTarget=0;pointerEvents=0;fillColor=none;top=0;left=0;bottom=0;right=0;points=[[0,0.5],[1,0.5]];portConstraint=eastwest;" vertex="1" parent="N8IRyX82hICqYUi2yfcc-71">
          <mxGeometry y="330" width="210" height="30" as="geometry" />
        </mxCell>
        <mxCell id="N8IRyX82hICqYUi2yfcc-103" value="" style="shape=partialRectangle;connectable=0;fillColor=none;top=0;left=0;bottom=0;right=0;editable=1;overflow=hidden;" vertex="1" parent="N8IRyX82hICqYUi2yfcc-102">
          <mxGeometry width="30" height="30" as="geometry" />
        </mxCell>
        <mxCell id="N8IRyX82hICqYUi2yfcc-104" value="infected_rate" style="shape=partialRectangle;connectable=0;fillColor=none;top=0;left=0;bottom=0;right=0;align=left;spacingLeft=6;overflow=hidden;" vertex="1" parent="N8IRyX82hICqYUi2yfcc-102">
          <mxGeometry x="30" width="180" height="30" as="geometry" />
        </mxCell>
        <mxCell id="N8IRyX82hICqYUi2yfcc-105" value="" style="shape=partialRectangle;collapsible=0;dropTarget=0;pointerEvents=0;fillColor=none;top=0;left=0;bottom=0;right=0;points=[[0,0.5],[1,0.5]];portConstraint=eastwest;" vertex="1" parent="N8IRyX82hICqYUi2yfcc-71">
          <mxGeometry y="360" width="210" height="30" as="geometry" />
        </mxCell>
        <mxCell id="N8IRyX82hICqYUi2yfcc-106" value="" style="shape=partialRectangle;connectable=0;fillColor=none;top=0;left=0;bottom=0;right=0;editable=1;overflow=hidden;" vertex="1" parent="N8IRyX82hICqYUi2yfcc-105">
          <mxGeometry width="30" height="30" as="geometry" />
        </mxCell>
        <mxCell id="N8IRyX82hICqYUi2yfcc-107" value="date" style="shape=partialRectangle;connectable=0;fillColor=none;top=0;left=0;bottom=0;right=0;align=left;spacingLeft=6;overflow=hidden;" vertex="1" parent="N8IRyX82hICqYUi2yfcc-105">
          <mxGeometry x="30" width="180" height="30" as="geometry" />
        </mxCell>
        <mxCell id="N8IRyX82hICqYUi2yfcc-108" value="Covid Status" style="shape=table;startSize=30;container=1;collapsible=1;childLayout=tableLayout;fixedRows=1;rowLines=0;fontStyle=1;align=center;resizeLast=1;" vertex="1" parent="1">
          <mxGeometry x="1445" y="680" width="270" height="400" as="geometry" />
        </mxCell>
        <mxCell id="N8IRyX82hICqYUi2yfcc-109" value="" style="shape=partialRectangle;collapsible=0;dropTarget=0;pointerEvents=0;fillColor=none;top=0;left=0;bottom=1;right=0;points=[[0,0.5],[1,0.5]];portConstraint=eastwest;" vertex="1" parent="N8IRyX82hICqYUi2yfcc-108">
          <mxGeometry y="30" width="270" height="30" as="geometry" />
        </mxCell>
        <mxCell id="N8IRyX82hICqYUi2yfcc-110" value="PK" style="shape=partialRectangle;connectable=0;fillColor=none;top=0;left=0;bottom=0;right=0;fontStyle=1;overflow=hidden;" vertex="1" parent="N8IRyX82hICqYUi2yfcc-109">
          <mxGeometry width="30" height="30" as="geometry" />
        </mxCell>
        <mxCell id="N8IRyX82hICqYUi2yfcc-111" value="covid_status_id" style="shape=partialRectangle;connectable=0;fillColor=none;top=0;left=0;bottom=0;right=0;align=left;spacingLeft=6;fontStyle=5;overflow=hidden;" vertex="1" parent="N8IRyX82hICqYUi2yfcc-109">
          <mxGeometry x="30" width="240" height="30" as="geometry" />
        </mxCell>
        <mxCell id="N8IRyX82hICqYUi2yfcc-112" value="" style="shape=partialRectangle;collapsible=0;dropTarget=0;pointerEvents=0;fillColor=none;top=0;left=0;bottom=0;right=0;points=[[0,0.5],[1,0.5]];portConstraint=eastwest;" vertex="1" parent="N8IRyX82hICqYUi2yfcc-108">
          <mxGeometry y="60" width="270" height="30" as="geometry" />
        </mxCell>
        <mxCell id="N8IRyX82hICqYUi2yfcc-113" value="" style="shape=partialRectangle;connectable=0;fillColor=none;top=0;left=0;bottom=0;right=0;editable=1;overflow=hidden;" vertex="1" parent="N8IRyX82hICqYUi2yfcc-112">
          <mxGeometry width="30" height="30" as="geometry" />
        </mxCell>
        <mxCell id="N8IRyX82hICqYUi2yfcc-114" value="infected_count" style="shape=partialRectangle;connectable=0;fillColor=none;top=0;left=0;bottom=0;right=0;align=left;spacingLeft=6;overflow=hidden;" vertex="1" parent="N8IRyX82hICqYUi2yfcc-112">
          <mxGeometry x="30" width="240" height="30" as="geometry" />
        </mxCell>
        <mxCell id="N8IRyX82hICqYUi2yfcc-115" value="" style="shape=partialRectangle;collapsible=0;dropTarget=0;pointerEvents=0;fillColor=none;top=0;left=0;bottom=0;right=0;points=[[0,0.5],[1,0.5]];portConstraint=eastwest;" vertex="1" parent="N8IRyX82hICqYUi2yfcc-108">
          <mxGeometry y="90" width="270" height="30" as="geometry" />
        </mxCell>
        <mxCell id="N8IRyX82hICqYUi2yfcc-116" value="" style="shape=partialRectangle;connectable=0;fillColor=none;top=0;left=0;bottom=0;right=0;editable=1;overflow=hidden;" vertex="1" parent="N8IRyX82hICqYUi2yfcc-115">
          <mxGeometry width="30" height="30" as="geometry" />
        </mxCell>
        <mxCell id="N8IRyX82hICqYUi2yfcc-117" value="deaths_count" style="shape=partialRectangle;connectable=0;fillColor=none;top=0;left=0;bottom=0;right=0;align=left;spacingLeft=6;overflow=hidden;" vertex="1" parent="N8IRyX82hICqYUi2yfcc-115">
          <mxGeometry x="30" width="240" height="30" as="geometry" />
        </mxCell>
        <mxCell id="N8IRyX82hICqYUi2yfcc-118" value="" style="shape=partialRectangle;collapsible=0;dropTarget=0;pointerEvents=0;fillColor=none;top=0;left=0;bottom=0;right=0;points=[[0,0.5],[1,0.5]];portConstraint=eastwest;" vertex="1" parent="N8IRyX82hICqYUi2yfcc-108">
          <mxGeometry y="120" width="270" height="30" as="geometry" />
        </mxCell>
        <mxCell id="N8IRyX82hICqYUi2yfcc-119" value="" style="shape=partialRectangle;connectable=0;fillColor=none;top=0;left=0;bottom=0;right=0;editable=1;overflow=hidden;" vertex="1" parent="N8IRyX82hICqYUi2yfcc-118">
          <mxGeometry width="30" height="30" as="geometry" />
        </mxCell>
        <mxCell id="N8IRyX82hICqYUi2yfcc-120" value="examine_count" style="shape=partialRectangle;connectable=0;fillColor=none;top=0;left=0;bottom=0;right=0;align=left;spacingLeft=6;overflow=hidden;" vertex="1" parent="N8IRyX82hICqYUi2yfcc-118">
          <mxGeometry x="30" width="240" height="30" as="geometry" />
        </mxCell>
        <mxCell id="N8IRyX82hICqYUi2yfcc-121" value="" style="shape=partialRectangle;collapsible=0;dropTarget=0;pointerEvents=0;fillColor=none;top=0;left=0;bottom=0;right=0;points=[[0,0.5],[1,0.5]];portConstraint=eastwest;" vertex="1" parent="N8IRyX82hICqYUi2yfcc-108">
          <mxGeometry y="150" width="270" height="30" as="geometry" />
        </mxCell>
        <mxCell id="N8IRyX82hICqYUi2yfcc-122" value="" style="shape=partialRectangle;connectable=0;fillColor=none;top=0;left=0;bottom=0;right=0;editable=1;overflow=hidden;" vertex="1" parent="N8IRyX82hICqYUi2yfcc-121">
          <mxGeometry width="30" height="30" as="geometry" />
        </mxCell>
        <mxCell id="N8IRyX82hICqYUi2yfcc-123" value="negative_count" style="shape=partialRectangle;connectable=0;fillColor=none;top=0;left=0;bottom=0;right=0;align=left;spacingLeft=6;overflow=hidden;" vertex="1" parent="N8IRyX82hICqYUi2yfcc-121">
          <mxGeometry x="30" width="240" height="30" as="geometry" />
        </mxCell>
        <mxCell id="N8IRyX82hICqYUi2yfcc-124" value="" style="shape=partialRectangle;collapsible=0;dropTarget=0;pointerEvents=0;fillColor=none;top=0;left=0;bottom=0;right=0;points=[[0,0.5],[1,0.5]];portConstraint=eastwest;" vertex="1" parent="N8IRyX82hICqYUi2yfcc-108">
          <mxGeometry y="180" width="270" height="30" as="geometry" />
        </mxCell>
        <mxCell id="N8IRyX82hICqYUi2yfcc-125" value="" style="shape=partialRectangle;connectable=0;fillColor=none;top=0;left=0;bottom=0;right=0;editable=1;overflow=hidden;" vertex="1" parent="N8IRyX82hICqYUi2yfcc-124">
          <mxGeometry width="30" height="30" as="geometry" />
        </mxCell>
        <mxCell id="N8IRyX82hICqYUi2yfcc-126" value="healing_count" style="shape=partialRectangle;connectable=0;fillColor=none;top=0;left=0;bottom=0;right=0;align=left;spacingLeft=6;overflow=hidden;" vertex="1" parent="N8IRyX82hICqYUi2yfcc-124">
          <mxGeometry x="30" width="240" height="30" as="geometry" />
        </mxCell>
        <mxCell id="N8IRyX82hICqYUi2yfcc-127" value="" style="shape=partialRectangle;collapsible=0;dropTarget=0;pointerEvents=0;fillColor=none;top=0;left=0;bottom=0;right=0;points=[[0,0.5],[1,0.5]];portConstraint=eastwest;" vertex="1" parent="N8IRyX82hICqYUi2yfcc-108">
          <mxGeometry y="210" width="270" height="30" as="geometry" />
        </mxCell>
        <mxCell id="N8IRyX82hICqYUi2yfcc-128" value="" style="shape=partialRectangle;connectable=0;fillColor=none;top=0;left=0;bottom=0;right=0;editable=1;overflow=hidden;" vertex="1" parent="N8IRyX82hICqYUi2yfcc-127">
          <mxGeometry width="30" height="30" as="geometry" />
        </mxCell>
        <mxCell id="N8IRyX82hICqYUi2yfcc-129" value="release_from_quarantine_count" style="shape=partialRectangle;connectable=0;fillColor=none;top=0;left=0;bottom=0;right=0;align=left;spacingLeft=6;overflow=hidden;" vertex="1" parent="N8IRyX82hICqYUi2yfcc-127">
          <mxGeometry x="30" width="240" height="30" as="geometry" />
        </mxCell>
        <mxCell id="N8IRyX82hICqYUi2yfcc-130" value="" style="shape=partialRectangle;collapsible=0;dropTarget=0;pointerEvents=0;fillColor=none;top=0;left=0;bottom=0;right=0;points=[[0,0.5],[1,0.5]];portConstraint=eastwest;" vertex="1" parent="N8IRyX82hICqYUi2yfcc-108">
          <mxGeometry y="240" width="270" height="30" as="geometry" />
        </mxCell>
        <mxCell id="N8IRyX82hICqYUi2yfcc-131" value="" style="shape=partialRectangle;connectable=0;fillColor=none;top=0;left=0;bottom=0;right=0;editable=1;overflow=hidden;" vertex="1" parent="N8IRyX82hICqYUi2yfcc-130">
          <mxGeometry width="30" height="30" as="geometry" />
        </mxCell>
        <mxCell id="N8IRyX82hICqYUi2yfcc-132" value="accumulated_inspection_count" style="shape=partialRectangle;connectable=0;fillColor=none;top=0;left=0;bottom=0;right=0;align=left;spacingLeft=6;overflow=hidden;" vertex="1" parent="N8IRyX82hICqYUi2yfcc-130">
          <mxGeometry x="30" width="240" height="30" as="geometry" />
        </mxCell>
        <mxCell id="N8IRyX82hICqYUi2yfcc-133" value="" style="shape=partialRectangle;collapsible=0;dropTarget=0;pointerEvents=0;fillColor=none;top=0;left=0;bottom=0;right=0;points=[[0,0.5],[1,0.5]];portConstraint=eastwest;" vertex="1" parent="N8IRyX82hICqYUi2yfcc-108">
          <mxGeometry y="270" width="270" height="30" as="geometry" />
        </mxCell>
        <mxCell id="N8IRyX82hICqYUi2yfcc-134" value="" style="shape=partialRectangle;connectable=0;fillColor=none;top=0;left=0;bottom=0;right=0;editable=1;overflow=hidden;" vertex="1" parent="N8IRyX82hICqYUi2yfcc-133">
          <mxGeometry width="30" height="30" as="geometry" />
        </mxCell>
        <mxCell id="N8IRyX82hICqYUi2yfcc-135" value="accumulated_inspection_comp_count" style="shape=partialRectangle;connectable=0;fillColor=none;top=0;left=0;bottom=0;right=0;align=left;spacingLeft=6;overflow=hidden;" vertex="1" parent="N8IRyX82hICqYUi2yfcc-133">
          <mxGeometry x="30" width="240" height="30" as="geometry" />
        </mxCell>
        <mxCell id="N8IRyX82hICqYUi2yfcc-136" value="" style="shape=partialRectangle;collapsible=0;dropTarget=0;pointerEvents=0;fillColor=none;top=0;left=0;bottom=0;right=0;points=[[0,0.5],[1,0.5]];portConstraint=eastwest;" vertex="1" parent="N8IRyX82hICqYUi2yfcc-108">
          <mxGeometry y="300" width="270" height="30" as="geometry" />
        </mxCell>
        <mxCell id="N8IRyX82hICqYUi2yfcc-137" value="" style="shape=partialRectangle;connectable=0;fillColor=none;top=0;left=0;bottom=0;right=0;editable=1;overflow=hidden;" vertex="1" parent="N8IRyX82hICqYUi2yfcc-136">
          <mxGeometry width="30" height="30" as="geometry" />
        </mxCell>
        <mxCell id="N8IRyX82hICqYUi2yfcc-138" value="accumulated_infected_rate" style="shape=partialRectangle;connectable=0;fillColor=none;top=0;left=0;bottom=0;right=0;align=left;spacingLeft=6;overflow=hidden;" vertex="1" parent="N8IRyX82hICqYUi2yfcc-136">
          <mxGeometry x="30" width="240" height="30" as="geometry" />
        </mxCell>
        <mxCell id="N8IRyX82hICqYUi2yfcc-139" value="" style="shape=partialRectangle;collapsible=0;dropTarget=0;pointerEvents=0;fillColor=none;top=0;left=0;bottom=0;right=0;points=[[0,0.5],[1,0.5]];portConstraint=eastwest;" vertex="1" parent="N8IRyX82hICqYUi2yfcc-108">
          <mxGeometry y="330" width="270" height="30" as="geometry" />
        </mxCell>
        <mxCell id="N8IRyX82hICqYUi2yfcc-140" value="" style="shape=partialRectangle;connectable=0;fillColor=none;top=0;left=0;bottom=0;right=0;editable=1;overflow=hidden;" vertex="1" parent="N8IRyX82hICqYUi2yfcc-139">
          <mxGeometry width="30" height="30" as="geometry" />
        </mxCell>
        <mxCell id="N8IRyX82hICqYUi2yfcc-141" value="date" style="shape=partialRectangle;connectable=0;fillColor=none;top=0;left=0;bottom=0;right=0;align=left;spacingLeft=6;overflow=hidden;" vertex="1" parent="N8IRyX82hICqYUi2yfcc-139">
          <mxGeometry x="30" width="240" height="30" as="geometry" />
        </mxCell>
        <mxCell id="N8IRyX82hICqYUi2yfcc-143" value="Issue" style="shape=table;startSize=30;container=1;collapsible=1;childLayout=tableLayout;fixedRows=1;rowLines=0;fontStyle=1;align=center;resizeLast=1;" vertex="1" parent="1">
          <mxGeometry x="760" y="760" width="180" height="250" as="geometry" />
        </mxCell>
        <mxCell id="N8IRyX82hICqYUi2yfcc-144" value="" style="shape=partialRectangle;collapsible=0;dropTarget=0;pointerEvents=0;fillColor=none;top=0;left=0;bottom=1;right=0;points=[[0,0.5],[1,0.5]];portConstraint=eastwest;" vertex="1" parent="N8IRyX82hICqYUi2yfcc-143">
          <mxGeometry y="30" width="180" height="30" as="geometry" />
        </mxCell>
        <mxCell id="N8IRyX82hICqYUi2yfcc-145" value="PK" style="shape=partialRectangle;connectable=0;fillColor=none;top=0;left=0;bottom=0;right=0;fontStyle=1;overflow=hidden;" vertex="1" parent="N8IRyX82hICqYUi2yfcc-144">
          <mxGeometry width="30" height="30" as="geometry" />
        </mxCell>
        <mxCell id="N8IRyX82hICqYUi2yfcc-146" value="issue_id" style="shape=partialRectangle;connectable=0;fillColor=none;top=0;left=0;bottom=0;right=0;align=left;spacingLeft=6;fontStyle=5;overflow=hidden;" vertex="1" parent="N8IRyX82hICqYUi2yfcc-144">
          <mxGeometry x="30" width="150" height="30" as="geometry" />
        </mxCell>
        <mxCell id="N8IRyX82hICqYUi2yfcc-150" value="" style="shape=partialRectangle;collapsible=0;dropTarget=0;pointerEvents=0;fillColor=none;top=0;left=0;bottom=0;right=0;points=[[0,0.5],[1,0.5]];portConstraint=eastwest;" vertex="1" parent="N8IRyX82hICqYUi2yfcc-143">
          <mxGeometry y="60" width="180" height="30" as="geometry" />
        </mxCell>
        <mxCell id="N8IRyX82hICqYUi2yfcc-151" value="" style="shape=partialRectangle;connectable=0;fillColor=none;top=0;left=0;bottom=0;right=0;editable=1;overflow=hidden;" vertex="1" parent="N8IRyX82hICqYUi2yfcc-150">
          <mxGeometry width="30" height="30" as="geometry" />
        </mxCell>
        <mxCell id="N8IRyX82hICqYUi2yfcc-152" value="city_id" style="shape=partialRectangle;connectable=0;fillColor=none;top=0;left=0;bottom=0;right=0;align=left;spacingLeft=6;overflow=hidden;" vertex="1" parent="N8IRyX82hICqYUi2yfcc-150">
          <mxGeometry x="30" width="150" height="30" as="geometry" />
        </mxCell>
        <mxCell id="N8IRyX82hICqYUi2yfcc-153" value="" style="shape=partialRectangle;collapsible=0;dropTarget=0;pointerEvents=0;fillColor=none;top=0;left=0;bottom=0;right=0;points=[[0,0.5],[1,0.5]];portConstraint=eastwest;" vertex="1" parent="N8IRyX82hICqYUi2yfcc-143">
          <mxGeometry y="90" width="180" height="30" as="geometry" />
        </mxCell>
        <mxCell id="N8IRyX82hICqYUi2yfcc-154" value="" style="shape=partialRectangle;connectable=0;fillColor=none;top=0;left=0;bottom=0;right=0;editable=1;overflow=hidden;" vertex="1" parent="N8IRyX82hICqYUi2yfcc-153">
          <mxGeometry width="30" height="30" as="geometry" />
        </mxCell>
        <mxCell id="N8IRyX82hICqYUi2yfcc-155" value="occurrence_date" style="shape=partialRectangle;connectable=0;fillColor=none;top=0;left=0;bottom=0;right=0;align=left;spacingLeft=6;overflow=hidden;" vertex="1" parent="N8IRyX82hICqYUi2yfcc-153">
          <mxGeometry x="30" width="150" height="30" as="geometry" />
        </mxCell>
        <mxCell id="N8IRyX82hICqYUi2yfcc-156" value="" style="shape=partialRectangle;collapsible=0;dropTarget=0;pointerEvents=0;fillColor=none;top=0;left=0;bottom=0;right=0;points=[[0,0.5],[1,0.5]];portConstraint=eastwest;" vertex="1" parent="N8IRyX82hICqYUi2yfcc-143">
          <mxGeometry y="120" width="180" height="30" as="geometry" />
        </mxCell>
        <mxCell id="N8IRyX82hICqYUi2yfcc-157" value="" style="shape=partialRectangle;connectable=0;fillColor=none;top=0;left=0;bottom=0;right=0;editable=1;overflow=hidden;" vertex="1" parent="N8IRyX82hICqYUi2yfcc-156">
          <mxGeometry width="30" height="30" as="geometry" />
        </mxCell>
        <mxCell id="N8IRyX82hICqYUi2yfcc-158" value="title" style="shape=partialRectangle;connectable=0;fillColor=none;top=0;left=0;bottom=0;right=0;align=left;spacingLeft=6;overflow=hidden;" vertex="1" parent="N8IRyX82hICqYUi2yfcc-156">
          <mxGeometry x="30" width="150" height="30" as="geometry" />
        </mxCell>
        <mxCell id="N8IRyX82hICqYUi2yfcc-187" value="" style="shape=partialRectangle;collapsible=0;dropTarget=0;pointerEvents=0;fillColor=none;top=0;left=0;bottom=0;right=0;points=[[0,0.5],[1,0.5]];portConstraint=eastwest;" vertex="1" parent="N8IRyX82hICqYUi2yfcc-143">
          <mxGeometry y="150" width="180" height="30" as="geometry" />
        </mxCell>
        <mxCell id="N8IRyX82hICqYUi2yfcc-188" value="" style="shape=partialRectangle;connectable=0;fillColor=none;top=0;left=0;bottom=0;right=0;editable=1;overflow=hidden;" vertex="1" parent="N8IRyX82hICqYUi2yfcc-187">
          <mxGeometry width="30" height="30" as="geometry" />
        </mxCell>
        <mxCell id="N8IRyX82hICqYUi2yfcc-189" value="description" style="shape=partialRectangle;connectable=0;fillColor=none;top=0;left=0;bottom=0;right=0;align=left;spacingLeft=6;overflow=hidden;" vertex="1" parent="N8IRyX82hICqYUi2yfcc-187">
          <mxGeometry x="30" width="150" height="30" as="geometry" />
        </mxCell>
        <mxCell id="N8IRyX82hICqYUi2yfcc-190" value="" style="shape=partialRectangle;collapsible=0;dropTarget=0;pointerEvents=0;fillColor=none;top=0;left=0;bottom=0;right=0;points=[[0,0.5],[1,0.5]];portConstraint=eastwest;" vertex="1" parent="N8IRyX82hICqYUi2yfcc-143">
          <mxGeometry y="180" width="180" height="30" as="geometry" />
        </mxCell>
        <mxCell id="N8IRyX82hICqYUi2yfcc-191" value="" style="shape=partialRectangle;connectable=0;fillColor=none;top=0;left=0;bottom=0;right=0;editable=1;overflow=hidden;" vertex="1" parent="N8IRyX82hICqYUi2yfcc-190">
          <mxGeometry width="30" height="30" as="geometry" />
        </mxCell>
        <mxCell id="N8IRyX82hICqYUi2yfcc-192" value="link" style="shape=partialRectangle;connectable=0;fillColor=none;top=0;left=0;bottom=0;right=0;align=left;spacingLeft=6;overflow=hidden;" vertex="1" parent="N8IRyX82hICqYUi2yfcc-190">
          <mxGeometry x="30" width="150" height="30" as="geometry" />
        </mxCell>
        <mxCell id="N8IRyX82hICqYUi2yfcc-193" value="Korea City" style="shape=table;startSize=30;container=1;collapsible=1;childLayout=tableLayout;fixedRows=1;rowLines=0;fontStyle=1;align=center;resizeLast=1;" vertex="1" parent="1">
          <mxGeometry x="80" y="640" width="180" height="220" as="geometry" />
        </mxCell>
        <mxCell id="N8IRyX82hICqYUi2yfcc-194" value="" style="shape=partialRectangle;collapsible=0;dropTarget=0;pointerEvents=0;fillColor=none;top=0;left=0;bottom=1;right=0;points=[[0,0.5],[1,0.5]];portConstraint=eastwest;" vertex="1" parent="N8IRyX82hICqYUi2yfcc-193">
          <mxGeometry y="30" width="180" height="30" as="geometry" />
        </mxCell>
        <mxCell id="N8IRyX82hICqYUi2yfcc-195" value="PK" style="shape=partialRectangle;connectable=0;fillColor=none;top=0;left=0;bottom=0;right=0;fontStyle=1;overflow=hidden;" vertex="1" parent="N8IRyX82hICqYUi2yfcc-194">
          <mxGeometry width="30" height="30" as="geometry" />
        </mxCell>
        <mxCell id="N8IRyX82hICqYUi2yfcc-196" value="city_id" style="shape=partialRectangle;connectable=0;fillColor=none;top=0;left=0;bottom=0;right=0;align=left;spacingLeft=6;fontStyle=5;overflow=hidden;" vertex="1" parent="N8IRyX82hICqYUi2yfcc-194">
          <mxGeometry x="30" width="150" height="30" as="geometry" />
        </mxCell>
        <mxCell id="N8IRyX82hICqYUi2yfcc-200" value="" style="shape=partialRectangle;collapsible=0;dropTarget=0;pointerEvents=0;fillColor=none;top=0;left=0;bottom=0;right=0;points=[[0,0.5],[1,0.5]];portConstraint=eastwest;" vertex="1" parent="N8IRyX82hICqYUi2yfcc-193">
          <mxGeometry y="60" width="180" height="30" as="geometry" />
        </mxCell>
        <mxCell id="N8IRyX82hICqYUi2yfcc-201" value="UK" style="shape=partialRectangle;connectable=0;fillColor=none;top=0;left=0;bottom=0;right=0;editable=1;overflow=hidden;" vertex="1" parent="N8IRyX82hICqYUi2yfcc-200">
          <mxGeometry width="30" height="30" as="geometry" />
        </mxCell>
        <mxCell id="N8IRyX82hICqYUi2yfcc-202" value="name_ko" style="shape=partialRectangle;connectable=0;fillColor=none;top=0;left=0;bottom=0;right=0;align=left;spacingLeft=6;overflow=hidden;" vertex="1" parent="N8IRyX82hICqYUi2yfcc-200">
          <mxGeometry x="30" width="150" height="30" as="geometry" />
        </mxCell>
        <mxCell id="N8IRyX82hICqYUi2yfcc-203" value="" style="shape=partialRectangle;collapsible=0;dropTarget=0;pointerEvents=0;fillColor=none;top=0;left=0;bottom=0;right=0;points=[[0,0.5],[1,0.5]];portConstraint=eastwest;" vertex="1" parent="N8IRyX82hICqYUi2yfcc-193">
          <mxGeometry y="90" width="180" height="30" as="geometry" />
        </mxCell>
        <mxCell id="N8IRyX82hICqYUi2yfcc-204" value="" style="shape=partialRectangle;connectable=0;fillColor=none;top=0;left=0;bottom=0;right=0;editable=1;overflow=hidden;" vertex="1" parent="N8IRyX82hICqYUi2yfcc-203">
          <mxGeometry width="30" height="30" as="geometry" />
        </mxCell>
        <mxCell id="N8IRyX82hICqYUi2yfcc-205" value="name_en" style="shape=partialRectangle;connectable=0;fillColor=none;top=0;left=0;bottom=0;right=0;align=left;spacingLeft=6;overflow=hidden;" vertex="1" parent="N8IRyX82hICqYUi2yfcc-203">
          <mxGeometry x="30" width="150" height="30" as="geometry" />
        </mxCell>
        <mxCell id="N8IRyX82hICqYUi2yfcc-206" value="" style="shape=partialRectangle;collapsible=0;dropTarget=0;pointerEvents=0;fillColor=none;top=0;left=0;bottom=0;right=0;points=[[0,0.5],[1,0.5]];portConstraint=eastwest;" vertex="1" parent="N8IRyX82hICqYUi2yfcc-193">
          <mxGeometry y="120" width="180" height="30" as="geometry" />
        </mxCell>
        <mxCell id="N8IRyX82hICqYUi2yfcc-207" value="" style="shape=partialRectangle;connectable=0;fillColor=none;top=0;left=0;bottom=0;right=0;editable=1;overflow=hidden;" vertex="1" parent="N8IRyX82hICqYUi2yfcc-206">
          <mxGeometry width="30" height="30" as="geometry" />
        </mxCell>
        <mxCell id="N8IRyX82hICqYUi2yfcc-208" value="population_count" style="shape=partialRectangle;connectable=0;fillColor=none;top=0;left=0;bottom=0;right=0;align=left;spacingLeft=6;overflow=hidden;" vertex="1" parent="N8IRyX82hICqYUi2yfcc-206">
          <mxGeometry x="30" width="150" height="30" as="geometry" />
        </mxCell>
        <mxCell id="N8IRyX82hICqYUi2yfcc-209" value="" style="shape=partialRectangle;collapsible=0;dropTarget=0;pointerEvents=0;fillColor=none;top=0;left=0;bottom=0;right=0;points=[[0,0.5],[1,0.5]];portConstraint=eastwest;" vertex="1" parent="N8IRyX82hICqYUi2yfcc-193">
          <mxGeometry y="150" width="180" height="30" as="geometry" />
        </mxCell>
        <mxCell id="N8IRyX82hICqYUi2yfcc-210" value="" style="shape=partialRectangle;connectable=0;fillColor=none;top=0;left=0;bottom=0;right=0;editable=1;overflow=hidden;" vertex="1" parent="N8IRyX82hICqYUi2yfcc-209">
          <mxGeometry width="30" height="30" as="geometry" />
        </mxCell>
        <mxCell id="N8IRyX82hICqYUi2yfcc-211" value="updated_date" style="shape=partialRectangle;connectable=0;fillColor=none;top=0;left=0;bottom=0;right=0;align=left;spacingLeft=6;overflow=hidden;" vertex="1" parent="N8IRyX82hICqYUi2yfcc-209">
          <mxGeometry x="30" width="150" height="30" as="geometry" />
        </mxCell>
        <mxCell id="N8IRyX82hICqYUi2yfcc-215" value="Member" style="shape=table;startSize=30;container=1;collapsible=1;childLayout=tableLayout;fixedRows=1;rowLines=0;fontStyle=1;align=center;resizeLast=1;" vertex="1" parent="1">
          <mxGeometry x="80" y="-40" width="180" height="160" as="geometry" />
        </mxCell>
        <mxCell id="N8IRyX82hICqYUi2yfcc-216" value="" style="shape=partialRectangle;collapsible=0;dropTarget=0;pointerEvents=0;fillColor=none;top=0;left=0;bottom=1;right=0;points=[[0,0.5],[1,0.5]];portConstraint=eastwest;" vertex="1" parent="N8IRyX82hICqYUi2yfcc-215">
          <mxGeometry y="30" width="180" height="30" as="geometry" />
        </mxCell>
        <mxCell id="N8IRyX82hICqYUi2yfcc-217" value="PK" style="shape=partialRectangle;connectable=0;fillColor=none;top=0;left=0;bottom=0;right=0;fontStyle=1;overflow=hidden;" vertex="1" parent="N8IRyX82hICqYUi2yfcc-216">
          <mxGeometry width="30" height="30" as="geometry" />
        </mxCell>
        <mxCell id="N8IRyX82hICqYUi2yfcc-218" value="member_id" style="shape=partialRectangle;connectable=0;fillColor=none;top=0;left=0;bottom=0;right=0;align=left;spacingLeft=6;fontStyle=5;overflow=hidden;" vertex="1" parent="N8IRyX82hICqYUi2yfcc-216">
          <mxGeometry x="30" width="150" height="30" as="geometry" />
        </mxCell>
        <mxCell id="N8IRyX82hICqYUi2yfcc-219" value="" style="shape=partialRectangle;collapsible=0;dropTarget=0;pointerEvents=0;fillColor=none;top=0;left=0;bottom=0;right=0;points=[[0,0.5],[1,0.5]];portConstraint=eastwest;" vertex="1" parent="N8IRyX82hICqYUi2yfcc-215">
          <mxGeometry y="60" width="180" height="30" as="geometry" />
        </mxCell>
        <mxCell id="N8IRyX82hICqYUi2yfcc-220" value="" style="shape=partialRectangle;connectable=0;fillColor=none;top=0;left=0;bottom=0;right=0;editable=1;overflow=hidden;" vertex="1" parent="N8IRyX82hICqYUi2yfcc-219">
          <mxGeometry width="30" height="30" as="geometry" />
        </mxCell>
        <mxCell id="N8IRyX82hICqYUi2yfcc-221" value="password" style="shape=partialRectangle;connectable=0;fillColor=none;top=0;left=0;bottom=0;right=0;align=left;spacingLeft=6;overflow=hidden;" vertex="1" parent="N8IRyX82hICqYUi2yfcc-219">
          <mxGeometry x="30" width="150" height="30" as="geometry" />
        </mxCell>
        <mxCell id="N8IRyX82hICqYUi2yfcc-222" value="" style="shape=partialRectangle;collapsible=0;dropTarget=0;pointerEvents=0;fillColor=none;top=0;left=0;bottom=0;right=0;points=[[0,0.5],[1,0.5]];portConstraint=eastwest;" vertex="1" parent="N8IRyX82hICqYUi2yfcc-215">
          <mxGeometry y="90" width="180" height="30" as="geometry" />
        </mxCell>
        <mxCell id="N8IRyX82hICqYUi2yfcc-223" value="" style="shape=partialRectangle;connectable=0;fillColor=none;top=0;left=0;bottom=0;right=0;editable=1;overflow=hidden;" vertex="1" parent="N8IRyX82hICqYUi2yfcc-222">
          <mxGeometry width="30" height="30" as="geometry" />
        </mxCell>
        <mxCell id="N8IRyX82hICqYUi2yfcc-224" value="email" style="shape=partialRectangle;connectable=0;fillColor=none;top=0;left=0;bottom=0;right=0;align=left;spacingLeft=6;overflow=hidden;" vertex="1" parent="N8IRyX82hICqYUi2yfcc-222">
          <mxGeometry x="30" width="150" height="30" as="geometry" />
        </mxCell>
        <mxCell id="N8IRyX82hICqYUi2yfcc-225" value="Reservation" style="shape=table;startSize=30;container=1;collapsible=1;childLayout=tableLayout;fixedRows=1;rowLines=0;fontStyle=1;align=center;resizeLast=1;" vertex="1" parent="1">
          <mxGeometry x="440" y="-40" width="180" height="280" as="geometry" />
        </mxCell>
        <mxCell id="N8IRyX82hICqYUi2yfcc-226" value="" style="shape=partialRectangle;collapsible=0;dropTarget=0;pointerEvents=0;fillColor=none;top=0;left=0;bottom=1;right=0;points=[[0,0.5],[1,0.5]];portConstraint=eastwest;" vertex="1" parent="N8IRyX82hICqYUi2yfcc-225">
          <mxGeometry y="30" width="180" height="30" as="geometry" />
        </mxCell>
        <mxCell id="N8IRyX82hICqYUi2yfcc-227" value="PK" style="shape=partialRectangle;connectable=0;fillColor=none;top=0;left=0;bottom=0;right=0;fontStyle=1;overflow=hidden;" vertex="1" parent="N8IRyX82hICqYUi2yfcc-226">
          <mxGeometry width="30" height="30" as="geometry" />
        </mxCell>
        <mxCell id="N8IRyX82hICqYUi2yfcc-228" value="reservation_id" style="shape=partialRectangle;connectable=0;fillColor=none;top=0;left=0;bottom=0;right=0;align=left;spacingLeft=6;fontStyle=5;overflow=hidden;" vertex="1" parent="N8IRyX82hICqYUi2yfcc-226">
          <mxGeometry x="30" width="150" height="30" as="geometry" />
        </mxCell>
        <mxCell id="N8IRyX82hICqYUi2yfcc-229" value="" style="shape=partialRectangle;collapsible=0;dropTarget=0;pointerEvents=0;fillColor=none;top=0;left=0;bottom=0;right=0;points=[[0,0.5],[1,0.5]];portConstraint=eastwest;" vertex="1" parent="N8IRyX82hICqYUi2yfcc-225">
          <mxGeometry y="60" width="180" height="30" as="geometry" />
        </mxCell>
        <mxCell id="N8IRyX82hICqYUi2yfcc-230" value="" style="shape=partialRectangle;connectable=0;fillColor=none;top=0;left=0;bottom=0;right=0;editable=1;overflow=hidden;" vertex="1" parent="N8IRyX82hICqYUi2yfcc-229">
          <mxGeometry width="30" height="30" as="geometry" />
        </mxCell>
        <mxCell id="N8IRyX82hICqYUi2yfcc-231" value="member_id" style="shape=partialRectangle;connectable=0;fillColor=none;top=0;left=0;bottom=0;right=0;align=left;spacingLeft=6;overflow=hidden;" vertex="1" parent="N8IRyX82hICqYUi2yfcc-229">
          <mxGeometry x="30" width="150" height="30" as="geometry" />
        </mxCell>
        <mxCell id="N8IRyX82hICqYUi2yfcc-232" value="" style="shape=partialRectangle;collapsible=0;dropTarget=0;pointerEvents=0;fillColor=none;top=0;left=0;bottom=0;right=0;points=[[0,0.5],[1,0.5]];portConstraint=eastwest;" vertex="1" parent="N8IRyX82hICqYUi2yfcc-225">
          <mxGeometry y="90" width="180" height="30" as="geometry" />
        </mxCell>
        <mxCell id="N8IRyX82hICqYUi2yfcc-233" value="" style="shape=partialRectangle;connectable=0;fillColor=none;top=0;left=0;bottom=0;right=0;editable=1;overflow=hidden;" vertex="1" parent="N8IRyX82hICqYUi2yfcc-232">
          <mxGeometry width="30" height="30" as="geometry" />
        </mxCell>
        <mxCell id="N8IRyX82hICqYUi2yfcc-234" value="clinic_time_id" style="shape=partialRectangle;connectable=0;fillColor=none;top=0;left=0;bottom=0;right=0;align=left;spacingLeft=6;overflow=hidden;" vertex="1" parent="N8IRyX82hICqYUi2yfcc-232">
          <mxGeometry x="30" width="150" height="30" as="geometry" />
        </mxCell>
        <mxCell id="N8IRyX82hICqYUi2yfcc-238" value="" style="shape=partialRectangle;collapsible=0;dropTarget=0;pointerEvents=0;fillColor=none;top=0;left=0;bottom=0;right=0;points=[[0,0.5],[1,0.5]];portConstraint=eastwest;" vertex="1" parent="N8IRyX82hICqYUi2yfcc-225">
          <mxGeometry y="120" width="180" height="30" as="geometry" />
        </mxCell>
        <mxCell id="N8IRyX82hICqYUi2yfcc-239" value="" style="shape=partialRectangle;connectable=0;fillColor=none;top=0;left=0;bottom=0;right=0;editable=1;overflow=hidden;" vertex="1" parent="N8IRyX82hICqYUi2yfcc-238">
          <mxGeometry width="30" height="30" as="geometry" />
        </mxCell>
        <mxCell id="N8IRyX82hICqYUi2yfcc-240" value="etc" style="shape=partialRectangle;connectable=0;fillColor=none;top=0;left=0;bottom=0;right=0;align=left;spacingLeft=6;overflow=hidden;" vertex="1" parent="N8IRyX82hICqYUi2yfcc-238">
          <mxGeometry x="30" width="150" height="30" as="geometry" />
        </mxCell>
        <mxCell id="N8IRyX82hICqYUi2yfcc-241" value="" style="shape=partialRectangle;collapsible=0;dropTarget=0;pointerEvents=0;fillColor=none;top=0;left=0;bottom=0;right=0;points=[[0,0.5],[1,0.5]];portConstraint=eastwest;" vertex="1" parent="N8IRyX82hICqYUi2yfcc-225">
          <mxGeometry y="150" width="180" height="30" as="geometry" />
        </mxCell>
        <mxCell id="N8IRyX82hICqYUi2yfcc-242" value="" style="shape=partialRectangle;connectable=0;fillColor=none;top=0;left=0;bottom=0;right=0;editable=1;overflow=hidden;" vertex="1" parent="N8IRyX82hICqYUi2yfcc-241">
          <mxGeometry width="30" height="30" as="geometry" />
        </mxCell>
        <mxCell id="N8IRyX82hICqYUi2yfcc-243" value="phone_area_code" style="shape=partialRectangle;connectable=0;fillColor=none;top=0;left=0;bottom=0;right=0;align=left;spacingLeft=6;overflow=hidden;" vertex="1" parent="N8IRyX82hICqYUi2yfcc-241">
          <mxGeometry x="30" width="150" height="30" as="geometry" />
        </mxCell>
        <mxCell id="N8IRyX82hICqYUi2yfcc-244" value="" style="shape=partialRectangle;collapsible=0;dropTarget=0;pointerEvents=0;fillColor=none;top=0;left=0;bottom=0;right=0;points=[[0,0.5],[1,0.5]];portConstraint=eastwest;" vertex="1" parent="N8IRyX82hICqYUi2yfcc-225">
          <mxGeometry y="180" width="180" height="30" as="geometry" />
        </mxCell>
        <mxCell id="N8IRyX82hICqYUi2yfcc-245" value="" style="shape=partialRectangle;connectable=0;fillColor=none;top=0;left=0;bottom=0;right=0;editable=1;overflow=hidden;" vertex="1" parent="N8IRyX82hICqYUi2yfcc-244">
          <mxGeometry width="30" height="30" as="geometry" />
        </mxCell>
        <mxCell id="N8IRyX82hICqYUi2yfcc-246" value="phone_number" style="shape=partialRectangle;connectable=0;fillColor=none;top=0;left=0;bottom=0;right=0;align=left;spacingLeft=6;overflow=hidden;" vertex="1" parent="N8IRyX82hICqYUi2yfcc-244">
          <mxGeometry x="30" width="150" height="30" as="geometry" />
        </mxCell>
        <mxCell id="N8IRyX82hICqYUi2yfcc-247" value="" style="shape=partialRectangle;collapsible=0;dropTarget=0;pointerEvents=0;fillColor=none;top=0;left=0;bottom=0;right=0;points=[[0,0.5],[1,0.5]];portConstraint=eastwest;" vertex="1" parent="N8IRyX82hICqYUi2yfcc-225">
          <mxGeometry y="210" width="180" height="30" as="geometry" />
        </mxCell>
        <mxCell id="N8IRyX82hICqYUi2yfcc-248" value="" style="shape=partialRectangle;connectable=0;fillColor=none;top=0;left=0;bottom=0;right=0;editable=1;overflow=hidden;" vertex="1" parent="N8IRyX82hICqYUi2yfcc-247">
          <mxGeometry width="30" height="30" as="geometry" />
        </mxCell>
        <mxCell id="N8IRyX82hICqYUi2yfcc-249" value="phone_dialing_code" style="shape=partialRectangle;connectable=0;fillColor=none;top=0;left=0;bottom=0;right=0;align=left;spacingLeft=6;overflow=hidden;" vertex="1" parent="N8IRyX82hICqYUi2yfcc-247">
          <mxGeometry x="30" width="150" height="30" as="geometry" />
        </mxCell>
        <mxCell id="N8IRyX82hICqYUi2yfcc-250" value="Social Distancing" style="shape=table;startSize=30;container=1;collapsible=1;childLayout=tableLayout;fixedRows=1;rowLines=0;fontStyle=1;align=center;resizeLast=1;" vertex="1" parent="1">
          <mxGeometry x="440" y="360" width="180" height="190" as="geometry" />
        </mxCell>
        <mxCell id="N8IRyX82hICqYUi2yfcc-251" value="" style="shape=partialRectangle;collapsible=0;dropTarget=0;pointerEvents=0;fillColor=none;top=0;left=0;bottom=1;right=0;points=[[0,0.5],[1,0.5]];portConstraint=eastwest;" vertex="1" parent="N8IRyX82hICqYUi2yfcc-250">
          <mxGeometry y="30" width="180" height="30" as="geometry" />
        </mxCell>
        <mxCell id="N8IRyX82hICqYUi2yfcc-252" value="PK" style="shape=partialRectangle;connectable=0;fillColor=none;top=0;left=0;bottom=0;right=0;fontStyle=1;overflow=hidden;" vertex="1" parent="N8IRyX82hICqYUi2yfcc-251">
          <mxGeometry width="30" height="30" as="geometry" />
        </mxCell>
        <mxCell id="N8IRyX82hICqYUi2yfcc-253" value="social_distancing_id" style="shape=partialRectangle;connectable=0;fillColor=none;top=0;left=0;bottom=0;right=0;align=left;spacingLeft=6;fontStyle=5;overflow=hidden;" vertex="1" parent="N8IRyX82hICqYUi2yfcc-251">
          <mxGeometry x="30" width="150" height="30" as="geometry" />
        </mxCell>
        <mxCell id="N8IRyX82hICqYUi2yfcc-254" value="" style="shape=partialRectangle;collapsible=0;dropTarget=0;pointerEvents=0;fillColor=none;top=0;left=0;bottom=0;right=0;points=[[0,0.5],[1,0.5]];portConstraint=eastwest;" vertex="1" parent="N8IRyX82hICqYUi2yfcc-250">
          <mxGeometry y="60" width="180" height="30" as="geometry" />
        </mxCell>
        <mxCell id="N8IRyX82hICqYUi2yfcc-255" value="" style="shape=partialRectangle;connectable=0;fillColor=none;top=0;left=0;bottom=0;right=0;editable=1;overflow=hidden;" vertex="1" parent="N8IRyX82hICqYUi2yfcc-254">
          <mxGeometry width="30" height="30" as="geometry" />
        </mxCell>
        <mxCell id="N8IRyX82hICqYUi2yfcc-256" value="city_id" style="shape=partialRectangle;connectable=0;fillColor=none;top=0;left=0;bottom=0;right=0;align=left;spacingLeft=6;overflow=hidden;" vertex="1" parent="N8IRyX82hICqYUi2yfcc-254">
          <mxGeometry x="30" width="150" height="30" as="geometry" />
        </mxCell>
        <mxCell id="N8IRyX82hICqYUi2yfcc-257" value="" style="shape=partialRectangle;collapsible=0;dropTarget=0;pointerEvents=0;fillColor=none;top=0;left=0;bottom=0;right=0;points=[[0,0.5],[1,0.5]];portConstraint=eastwest;" vertex="1" parent="N8IRyX82hICqYUi2yfcc-250">
          <mxGeometry y="90" width="180" height="30" as="geometry" />
        </mxCell>
        <mxCell id="N8IRyX82hICqYUi2yfcc-258" value="" style="shape=partialRectangle;connectable=0;fillColor=none;top=0;left=0;bottom=0;right=0;editable=1;overflow=hidden;" vertex="1" parent="N8IRyX82hICqYUi2yfcc-257">
          <mxGeometry width="30" height="30" as="geometry" />
        </mxCell>
        <mxCell id="N8IRyX82hICqYUi2yfcc-259" value="date" style="shape=partialRectangle;connectable=0;fillColor=none;top=0;left=0;bottom=0;right=0;align=left;spacingLeft=6;overflow=hidden;" vertex="1" parent="N8IRyX82hICqYUi2yfcc-257">
          <mxGeometry x="30" width="150" height="30" as="geometry" />
        </mxCell>
        <mxCell id="N8IRyX82hICqYUi2yfcc-260" value="" style="shape=partialRectangle;collapsible=0;dropTarget=0;pointerEvents=0;fillColor=none;top=0;left=0;bottom=0;right=0;points=[[0,0.5],[1,0.5]];portConstraint=eastwest;" vertex="1" parent="N8IRyX82hICqYUi2yfcc-250">
          <mxGeometry y="120" width="180" height="30" as="geometry" />
        </mxCell>
        <mxCell id="N8IRyX82hICqYUi2yfcc-261" value="" style="shape=partialRectangle;connectable=0;fillColor=none;top=0;left=0;bottom=0;right=0;editable=1;overflow=hidden;" vertex="1" parent="N8IRyX82hICqYUi2yfcc-260">
          <mxGeometry width="30" height="30" as="geometry" />
        </mxCell>
        <mxCell id="N8IRyX82hICqYUi2yfcc-262" value="step" style="shape=partialRectangle;connectable=0;fillColor=none;top=0;left=0;bottom=0;right=0;align=left;spacingLeft=6;overflow=hidden;" vertex="1" parent="N8IRyX82hICqYUi2yfcc-260">
          <mxGeometry x="30" width="150" height="30" as="geometry" />
        </mxCell>
        <mxCell id="N8IRyX82hICqYUi2yfcc-266" value="Vaccination Status" style="shape=table;startSize=30;container=1;collapsible=1;childLayout=tableLayout;fixedRows=1;rowLines=0;fontStyle=1;align=center;resizeLast=1;" vertex="1" parent="1">
          <mxGeometry x="440" y="960" width="180" height="250" as="geometry" />
        </mxCell>
        <mxCell id="N8IRyX82hICqYUi2yfcc-267" value="" style="shape=partialRectangle;collapsible=0;dropTarget=0;pointerEvents=0;fillColor=none;top=0;left=0;bottom=1;right=0;points=[[0,0.5],[1,0.5]];portConstraint=eastwest;" vertex="1" parent="N8IRyX82hICqYUi2yfcc-266">
          <mxGeometry y="30" width="180" height="30" as="geometry" />
        </mxCell>
        <mxCell id="N8IRyX82hICqYUi2yfcc-268" value="PK" style="shape=partialRectangle;connectable=0;fillColor=none;top=0;left=0;bottom=0;right=0;fontStyle=1;overflow=hidden;" vertex="1" parent="N8IRyX82hICqYUi2yfcc-267">
          <mxGeometry width="30" height="30" as="geometry" />
        </mxCell>
        <mxCell id="N8IRyX82hICqYUi2yfcc-269" value="vaccination_status_id" style="shape=partialRectangle;connectable=0;fillColor=none;top=0;left=0;bottom=0;right=0;align=left;spacingLeft=6;fontStyle=5;overflow=hidden;" vertex="1" parent="N8IRyX82hICqYUi2yfcc-267">
          <mxGeometry x="30" width="150" height="30" as="geometry" />
        </mxCell>
        <mxCell id="N8IRyX82hICqYUi2yfcc-270" value="" style="shape=partialRectangle;collapsible=0;dropTarget=0;pointerEvents=0;fillColor=none;top=0;left=0;bottom=0;right=0;points=[[0,0.5],[1,0.5]];portConstraint=eastwest;" vertex="1" parent="N8IRyX82hICqYUi2yfcc-266">
          <mxGeometry y="60" width="180" height="30" as="geometry" />
        </mxCell>
        <mxCell id="N8IRyX82hICqYUi2yfcc-271" value="" style="shape=partialRectangle;connectable=0;fillColor=none;top=0;left=0;bottom=0;right=0;editable=1;overflow=hidden;" vertex="1" parent="N8IRyX82hICqYUi2yfcc-270">
          <mxGeometry width="30" height="30" as="geometry" />
        </mxCell>
        <mxCell id="N8IRyX82hICqYUi2yfcc-272" value="city_id" style="shape=partialRectangle;connectable=0;fillColor=none;top=0;left=0;bottom=0;right=0;align=left;spacingLeft=6;overflow=hidden;" vertex="1" parent="N8IRyX82hICqYUi2yfcc-270">
          <mxGeometry x="30" width="150" height="30" as="geometry" />
        </mxCell>
        <mxCell id="N8IRyX82hICqYUi2yfcc-273" value="" style="shape=partialRectangle;collapsible=0;dropTarget=0;pointerEvents=0;fillColor=none;top=0;left=0;bottom=0;right=0;points=[[0,0.5],[1,0.5]];portConstraint=eastwest;" vertex="1" parent="N8IRyX82hICqYUi2yfcc-266">
          <mxGeometry y="90" width="180" height="30" as="geometry" />
        </mxCell>
        <mxCell id="N8IRyX82hICqYUi2yfcc-274" value="" style="shape=partialRectangle;connectable=0;fillColor=none;top=0;left=0;bottom=0;right=0;editable=1;overflow=hidden;" vertex="1" parent="N8IRyX82hICqYUi2yfcc-273">
          <mxGeometry width="30" height="30" as="geometry" />
        </mxCell>
        <mxCell id="N8IRyX82hICqYUi2yfcc-275" value="date" style="shape=partialRectangle;connectable=0;fillColor=none;top=0;left=0;bottom=0;right=0;align=left;spacingLeft=6;overflow=hidden;" vertex="1" parent="N8IRyX82hICqYUi2yfcc-273">
          <mxGeometry x="30" width="150" height="30" as="geometry" />
        </mxCell>
        <mxCell id="N8IRyX82hICqYUi2yfcc-276" value="" style="shape=partialRectangle;collapsible=0;dropTarget=0;pointerEvents=0;fillColor=none;top=0;left=0;bottom=0;right=0;points=[[0,0.5],[1,0.5]];portConstraint=eastwest;" vertex="1" parent="N8IRyX82hICqYUi2yfcc-266">
          <mxGeometry y="120" width="180" height="30" as="geometry" />
        </mxCell>
        <mxCell id="N8IRyX82hICqYUi2yfcc-277" value="" style="shape=partialRectangle;connectable=0;fillColor=none;top=0;left=0;bottom=0;right=0;editable=1;overflow=hidden;" vertex="1" parent="N8IRyX82hICqYUi2yfcc-276">
          <mxGeometry width="30" height="30" as="geometry" />
        </mxCell>
        <mxCell id="N8IRyX82hICqYUi2yfcc-278" value="total_count" style="shape=partialRectangle;connectable=0;fillColor=none;top=0;left=0;bottom=0;right=0;align=left;spacingLeft=6;overflow=hidden;" vertex="1" parent="N8IRyX82hICqYUi2yfcc-276">
          <mxGeometry x="30" width="150" height="30" as="geometry" />
        </mxCell>
        <mxCell id="N8IRyX82hICqYUi2yfcc-279" value="" style="shape=partialRectangle;collapsible=0;dropTarget=0;pointerEvents=0;fillColor=none;top=0;left=0;bottom=0;right=0;points=[[0,0.5],[1,0.5]];portConstraint=eastwest;" vertex="1" parent="N8IRyX82hICqYUi2yfcc-266">
          <mxGeometry y="150" width="180" height="30" as="geometry" />
        </mxCell>
        <mxCell id="N8IRyX82hICqYUi2yfcc-280" value="" style="shape=partialRectangle;connectable=0;fillColor=none;top=0;left=0;bottom=0;right=0;editable=1;overflow=hidden;" vertex="1" parent="N8IRyX82hICqYUi2yfcc-279">
          <mxGeometry width="30" height="30" as="geometry" />
        </mxCell>
        <mxCell id="N8IRyX82hICqYUi2yfcc-281" value="primary_count" style="shape=partialRectangle;connectable=0;fillColor=none;top=0;left=0;bottom=0;right=0;align=left;spacingLeft=6;overflow=hidden;" vertex="1" parent="N8IRyX82hICqYUi2yfcc-279">
          <mxGeometry x="30" width="150" height="30" as="geometry" />
        </mxCell>
        <mxCell id="N8IRyX82hICqYUi2yfcc-282" value="" style="shape=partialRectangle;collapsible=0;dropTarget=0;pointerEvents=0;fillColor=none;top=0;left=0;bottom=0;right=0;points=[[0,0.5],[1,0.5]];portConstraint=eastwest;" vertex="1" parent="N8IRyX82hICqYUi2yfcc-266">
          <mxGeometry y="180" width="180" height="30" as="geometry" />
        </mxCell>
        <mxCell id="N8IRyX82hICqYUi2yfcc-283" value="" style="shape=partialRectangle;connectable=0;fillColor=none;top=0;left=0;bottom=0;right=0;editable=1;overflow=hidden;" vertex="1" parent="N8IRyX82hICqYUi2yfcc-282">
          <mxGeometry width="30" height="30" as="geometry" />
        </mxCell>
        <mxCell id="N8IRyX82hICqYUi2yfcc-284" value="secondary_count" style="shape=partialRectangle;connectable=0;fillColor=none;top=0;left=0;bottom=0;right=0;align=left;spacingLeft=6;overflow=hidden;" vertex="1" parent="N8IRyX82hICqYUi2yfcc-282">
          <mxGeometry x="30" width="150" height="30" as="geometry" />
        </mxCell>
        <mxCell id="N8IRyX82hICqYUi2yfcc-288" style="edgeStyle=orthogonalEdgeStyle;rounded=0;orthogonalLoop=1;jettySize=auto;html=1;endArrow=ERzeroToOne;endFill=1;startArrow=ERoneToMany;startFill=0;" edge="1" parent="1" source="N8IRyX82hICqYUi2yfcc-229" target="N8IRyX82hICqYUi2yfcc-216">
          <mxGeometry relative="1" as="geometry" />
        </mxCell>
        <mxCell id="N8IRyX82hICqYUi2yfcc-289" style="edgeStyle=orthogonalEdgeStyle;rounded=0;orthogonalLoop=1;jettySize=auto;html=1;entryX=1;entryY=0.5;entryDx=0;entryDy=0;endArrow=ERoneToMany;endFill=0;startArrow=ERzeroToOne;startFill=1;" edge="1" parent="1" source="N8IRyX82hICqYUi2yfcc-31" target="N8IRyX82hICqYUi2yfcc-18">
          <mxGeometry relative="1" as="geometry" />
        </mxCell>
        <mxCell id="N8IRyX82hICqYUi2yfcc-290" style="edgeStyle=orthogonalEdgeStyle;rounded=0;orthogonalLoop=1;jettySize=auto;html=1;exitX=0;exitY=0.5;exitDx=0;exitDy=0;startArrow=ERzeroToOne;startFill=1;endArrow=ERoneToMany;endFill=0;" edge="1" parent="1" source="N8IRyX82hICqYUi2yfcc-15" target="N8IRyX82hICqYUi2yfcc-232">
          <mxGeometry relative="1" as="geometry" />
        </mxCell>
        <mxCell id="N8IRyX82hICqYUi2yfcc-293" style="edgeStyle=orthogonalEdgeStyle;rounded=0;orthogonalLoop=1;jettySize=auto;html=1;exitX=0;exitY=0.5;exitDx=0;exitDy=0;startArrow=ERoneToMany;startFill=0;endArrow=ERzeroToOne;endFill=1;" edge="1" parent="1" source="N8IRyX82hICqYUi2yfcc-150" target="N8IRyX82hICqYUi2yfcc-194">
          <mxGeometry relative="1" as="geometry" />
        </mxCell>
        <mxCell id="N8IRyX82hICqYUi2yfcc-295" style="edgeStyle=orthogonalEdgeStyle;rounded=0;orthogonalLoop=1;jettySize=auto;html=1;entryX=1;entryY=0.5;entryDx=0;entryDy=0;startArrow=ERoneToMany;startFill=0;endArrow=ERzeroToOne;endFill=1;" edge="1" parent="1" source="N8IRyX82hICqYUi2yfcc-254" target="N8IRyX82hICqYUi2yfcc-194">
          <mxGeometry relative="1" as="geometry" />
        </mxCell>
        <mxCell id="N8IRyX82hICqYUi2yfcc-296" style="edgeStyle=orthogonalEdgeStyle;rounded=0;orthogonalLoop=1;jettySize=auto;html=1;entryX=1;entryY=0.5;entryDx=0;entryDy=0;startArrow=ERoneToMany;startFill=0;endArrow=ERzeroToOne;endFill=1;" edge="1" parent="1" source="N8IRyX82hICqYUi2yfcc-270" target="N8IRyX82hICqYUi2yfcc-194">
          <mxGeometry relative="1" as="geometry" />
        </mxCell>
        <mxCell id="N8IRyX82hICqYUi2yfcc-297" style="edgeStyle=orthogonalEdgeStyle;rounded=0;orthogonalLoop=1;jettySize=auto;html=1;exitX=0;exitY=0.5;exitDx=0;exitDy=0;entryX=1;entryY=0.5;entryDx=0;entryDy=0;startArrow=ERoneToMany;startFill=0;endArrow=ERzeroToOne;endFill=1;" edge="1" parent="1" source="N8IRyX82hICqYUi2yfcc-75" target="N8IRyX82hICqYUi2yfcc-194">
          <mxGeometry relative="1" as="geometry" />
        </mxCell>
      </root>
    </mxGraphModel>
  </diagram>
</mxfile>
